<?xml version="1.0" encoding="UTF-8"?>
<svg xmlns="http://www.w3.org/2000/svg" xmlns:xlink="http://www.w3.org/1999/xlink" width="200px" height="200px" viewBox="0 0 200 200" version="1.1">
<g id="surface1">
<path style=" stroke:none;fill-rule:nonzero;fill:rgb(0%,0%,0%);fill-opacity:1;" d="M 94.394531 61.921875 C 92.4375 64.414062 91.191406 70.550781 91.902344 74.910156 C 92.082031 76.511719 91.816406 79.269531 91.191406 81.050781 C 90.480469 82.828125 89.859375 86.03125 89.769531 88.167969 L 89.414062 92.082031 L 100.355469 93.503906 C 106.40625 94.21875 111.476562 94.660156 111.65625 94.304688 C 111.832031 94.039062 108.363281 93.238281 103.824219 92.617188 C 91.015625 90.835938 90.570312 90.660156 91.191406 89.058594 C 92.4375 86.121094 94.304688 78.113281 94.304688 76.066406 C 94.304688 74.910156 95.640625 72.421875 97.242188 70.640625 C 99.378906 68.058594 99.644531 67.527344 98.132812 68.328125 C 97.0625 68.949219 95.996094 69.839844 95.820312 70.460938 C 95.550781 71.085938 95.285156 70.550781 95.285156 69.304688 C 95.195312 68.058594 95.996094 66.28125 97.0625 65.300781 C 98.84375 63.699219 98.933594 63.699219 100.089844 65.214844 C 101.066406 66.546875 101.691406 66.636719 103.023438 65.925781 C 104.003906 65.390625 104.980469 65.214844 105.25 65.480469 C 105.515625 65.835938 107.738281 65.570312 110.230469 64.945312 C 117.347656 63.257812 119.394531 63.167969 125.265625 64.679688 C 128.292969 65.390625 131.40625 65.746094 132.117188 65.480469 C 133.453125 65.035156 137.101562 67.527344 140.300781 71.175781 C 142.261719 73.308594 142.703125 74.289062 142.4375 75.890625 C 142.347656 76.601562 144.929688 87.722656 145.730469 89.859375 C 146.796875 92.617188 146.886719 83.898438 145.820312 80.515625 C 145.285156 78.558594 144.839844 74.910156 144.929688 72.421875 C 145.019531 69.839844 144.484375 66.371094 143.683594 64.234375 C 141.636719 59.339844 139.058594 58.628906 134.429688 61.65625 C 131.226562 63.789062 130.78125 63.878906 127.578125 62.722656 C 122.863281 61.03125 113.789062 61.03125 109.519531 62.8125 C 106.226562 64.144531 105.960938 64.058594 102.757812 61.921875 C 98.488281 58.984375 96.707031 58.984375 94.394531 61.921875 Z M 140.480469 66.371094 C 141.816406 69.394531 141.28125 69.929688 138.433594 68.058594 C 136.03125 66.460938 135.675781 65.660156 136.742188 64.679688 C 137.898438 63.433594 139.414062 64.144531 140.480469 66.371094 Z M 140.480469 66.371094 "/>
<path style=" stroke:none;fill-rule:nonzero;fill:rgb(0%,0%,0%);fill-opacity:1;" d="M 107.828125 82.027344 C 105.960938 83.898438 106.582031 87.898438 108.984375 89.5 C 113.34375 92.347656 118.238281 87.457031 115.660156 82.828125 C 114.589844 80.695312 109.609375 80.25 107.828125 82.027344 Z M 107.828125 82.027344 "/>
<path style=" stroke:none;fill-rule:nonzero;fill:rgb(0%,0%,0%);fill-opacity:1;" d="M 130.960938 82.027344 C 129.09375 83.898438 129.714844 87.898438 132.027344 89.414062 C 136.742188 92.527344 142.261719 86.386719 138.257812 82.382812 C 136.65625 80.695312 132.472656 80.515625 130.960938 82.027344 Z M 130.960938 82.027344 "/>
<path style=" stroke:none;fill-rule:nonzero;fill:rgb(0%,0%,0%);fill-opacity:1;" d="M 25.535156 87.011719 C 21.707031 91.28125 24.734375 94.75 32.917969 95.640625 C 45.640625 96.886719 49.910156 99.820312 56.496094 111.566406 C 59.339844 116.726562 59.699219 117.972656 59.253906 121.707031 C 58.898438 124.554688 59.253906 127.3125 60.320312 130.339844 L 61.832031 134.785156 L 58.007812 145.019531 C 53.914062 156.050781 53.738281 158.628906 57.382812 160.320312 C 61.121094 162.011719 63.34375 159.609375 66.636719 150.445312 C 68.683594 144.839844 69.839844 142.617188 70.730469 142.882812 C 71.351562 143.148438 73.308594 147.0625 74.910156 151.511719 C 77.402344 158.273438 78.292969 159.785156 80.25 160.5 C 83.183594 161.566406 86.300781 159.253906 86.300781 156.140625 C 86.300781 152.222656 83.539062 145.90625 81.851562 145.90625 C 80.339844 145.90625 80.339844 146.085938 81.582031 148.664062 C 83.539062 152.578125 83.539062 156.851562 81.582031 157.296875 C 80.515625 157.5625 79.625 156.496094 78.292969 153.46875 C 77.3125 151.15625 76.511719 148.398438 76.511719 147.242188 C 76.511719 145.996094 75.890625 144.929688 74.820312 144.574219 C 73.84375 144.304688 72.863281 143.503906 72.597656 142.792969 C 71.976562 141.015625 69.039062 141.101562 67.527344 142.882812 C 66.816406 143.773438 65.214844 147.242188 63.96875 150.710938 C 62.011719 156.226562 61.386719 157.027344 59.339844 157.296875 C 56.496094 157.652344 56.316406 156.226562 58.363281 150.800781 C 63.96875 136.03125 64.058594 135.410156 62.722656 130.160156 C 62.011719 127.492188 61.65625 123.488281 61.921875 121.261719 C 62.277344 117.882812 61.921875 116.460938 59.164062 111.386719 C 52.046875 98.398438 48.578125 95.730469 36.386719 93.773438 C 27.222656 92.261719 25.800781 91.546875 27.578125 89.324219 C 28.648438 88.167969 29.894531 87.988281 35.585938 88.523438 C 47.421875 89.679688 54.003906 93.238281 59.164062 101.335938 C 60.5 103.46875 62.8125 106.40625 64.324219 107.738281 L 66.992188 110.230469 L 69.660156 108.363281 C 71.796875 106.851562 72.421875 106.761719 73.042969 107.738281 C 73.664062 108.71875 73.84375 108.539062 73.84375 107.027344 C 73.84375 105.960938 74.289062 104.804688 74.734375 104.539062 C 75.265625 104.269531 75.621094 104.359375 75.621094 104.804688 C 75.621094 105.871094 83.097656 105.070312 83.453125 103.914062 C 83.628906 103.46875 84.339844 103.648438 85.054688 104.179688 C 86.03125 104.980469 86.921875 104.980469 88.699219 104.179688 C 90.835938 103.203125 91.191406 103.378906 93.503906 106.140625 C 99.644531 113.523438 114.234375 117.882812 125.445312 115.480469 C 129.714844 114.589844 131.316406 113.789062 131.496094 112.632812 C 131.761719 111.300781 131.496094 111.121094 129.714844 111.832031 C 128.648438 112.1875 123.308594 112.542969 117.882812 112.542969 C 108.898438 112.542969 107.652344 112.367188 102.9375 110.054688 C 100 108.628906 96.621094 105.960938 95.019531 104.003906 C 93.238281 101.78125 91.902344 100.800781 91.28125 101.335938 C 90.746094 101.78125 86.476562 102.3125 81.761719 102.492188 C 74.199219 102.757812 72.6875 103.113281 69.394531 105.339844 C 67.347656 106.671875 65.570312 107.652344 65.480469 107.472656 C 65.390625 107.296875 64.5 105.605469 63.613281 103.738281 C 60.765625 98.132812 53.824219 91.191406 49.109375 89.144531 C 40.660156 85.5 27.9375 84.339844 25.535156 87.011719 Z M 25.535156 87.011719 "/>
<path style=" stroke:none;fill-rule:nonzero;fill:rgb(0%,0%,0%);fill-opacity:1;" d="M 116.726562 89.945312 C 114.324219 91.726562 112.988281 93.328125 112.988281 94.574219 C 112.988281 96.441406 113.078125 96.441406 114.144531 94.304688 C 116.902344 88.699219 125.355469 87.542969 130.25 92.082031 C 133.183594 94.839844 133.183594 97.863281 130.25 101.335938 C 125.800781 106.671875 117.4375 105.605469 114.414062 99.289062 C 113.34375 97.0625 112.988281 96.796875 112.542969 98.042969 C 111.65625 100.179688 114.945312 104.449219 118.859375 106.316406 C 121.53125 107.5625 122.6875 107.652344 125.445312 106.851562 C 130.78125 105.25 133.453125 102.222656 133.453125 97.6875 C 133.453125 93.058594 133.097656 92.527344 128.648438 89.5 C 124.109375 86.476562 121.261719 86.566406 116.726562 89.945312 Z M 116.726562 89.945312 "/>
<path style=" stroke:none;fill-rule:nonzero;fill:rgb(0%,0%,0%);fill-opacity:1;" d="M 143.503906 92.347656 C 138.433594 93.148438 134.339844 94.128906 134.339844 94.574219 C 134.339844 94.929688 135.054688 95.105469 135.941406 94.839844 C 136.742188 94.660156 141.816406 93.949219 147.0625 93.328125 C 152.3125 92.792969 156.851562 91.902344 157.117188 91.546875 C 157.738281 90.480469 154.359375 90.660156 143.503906 92.347656 Z M 143.503906 92.347656 "/>
<path style=" stroke:none;fill-rule:nonzero;fill:rgb(0%,0%,0%);fill-opacity:1;" d="M 120.996094 92.527344 C 119.839844 93.328125 119.839844 93.59375 121.261719 94.660156 C 122.6875 95.730469 122.6875 95.90625 121.351562 97.0625 C 120.105469 98.042969 119.75 97.953125 118.683594 96.53125 C 117.972656 95.640625 117.171875 95.105469 116.902344 95.460938 C 115.390625 96.976562 118.683594 98.488281 123.21875 98.578125 C 127.136719 98.578125 128.292969 98.308594 129.003906 96.886719 C 129.539062 95.90625 129.625 95.195312 129.09375 95.195312 C 128.648438 95.195312 128.113281 95.820312 127.757812 96.53125 C 127.222656 98.042969 124.910156 98.308594 124.109375 96.886719 C 123.753906 96.351562 124.199219 95.375 125.089844 94.75 C 126.601562 93.59375 126.601562 93.328125 125.445312 92.527344 C 124.734375 92.082031 123.753906 91.636719 123.21875 91.636719 C 122.777344 91.636719 121.707031 92.082031 120.996094 92.527344 Z M 120.996094 92.527344 "/>
<path style=" stroke:none;fill-rule:nonzero;fill:rgb(0%,0%,0%);fill-opacity:1;" d="M 97.597656 97.421875 C 93.328125 98.042969 89.5 98.84375 89.144531 99.199219 C 88.34375 100 99.289062 98.933594 106.761719 97.421875 C 111.65625 96.441406 112.011719 96.261719 108.984375 96.261719 C 107.027344 96.261719 101.867188 96.796875 97.597656 97.421875 Z M 97.597656 97.421875 "/>
<path style=" stroke:none;fill-rule:nonzero;fill:rgb(0%,0%,0%);fill-opacity:1;" d="M 137.898438 97.152344 C 140.125 97.6875 142.4375 98.21875 143.058594 98.398438 C 144.128906 98.753906 139.144531 103.648438 132.917969 108.273438 C 130.605469 110.054688 130.515625 110.230469 132.207031 110.230469 C 134.785156 110.320312 141.191406 105.515625 143.417969 101.78125 C 145.285156 98.488281 146.261719 98.308594 152.847656 99.554688 C 154.894531 100 156.851562 100 157.117188 99.554688 C 157.382812 99.109375 157.296875 98.753906 156.851562 98.753906 C 156.496094 98.753906 152.136719 98.132812 147.242188 97.421875 C 137.1875 95.996094 131.671875 95.820312 137.898438 97.152344 Z M 137.898438 97.152344 "/>
<path style=" stroke:none;fill-rule:nonzero;fill:rgb(0%,0%,0%);fill-opacity:1;" d="M 129.804688 115.660156 C 129.804688 115.925781 129.625 119.394531 129.539062 123.488281 C 129.359375 130.070312 129.09375 131.226562 126.511719 134.785156 C 124.910156 137.011719 123.664062 139.414062 123.664062 140.125 C 123.664062 142.4375 119.574219 144.394531 116.101562 143.773438 C 111.566406 142.882812 109.875 144.304688 107.207031 151.246094 C 105.160156 156.582031 104.539062 157.472656 102.667969 157.472656 C 100.089844 157.472656 99.820312 154.980469 101.957031 149.910156 C 103.203125 146.886719 103.203125 146.441406 101.78125 144.929688 C 100.535156 143.503906 99.019531 143.238281 92.4375 143.238281 C 88.167969 143.238281 84.429688 143.59375 84.074219 144.039062 C 83.363281 145.285156 91.015625 146.175781 96.53125 145.460938 C 99.199219 145.195312 101.421875 145.105469 101.421875 145.285156 C 101.421875 145.550781 100.621094 147.597656 99.644531 149.910156 C 97.242188 155.515625 97.332031 158.007812 100.179688 159.875 C 104.003906 162.277344 106.496094 160.230469 109.429688 152.136719 C 111.476562 146.351562 112.101562 145.460938 113.96875 145.460938 C 115.835938 145.460938 116.371094 146.261719 118.417969 152.136719 C 121.261719 160.230469 123.753906 162.367188 127.578125 159.875 C 130.515625 157.917969 130.515625 156.050781 127.3125 147.421875 L 124.734375 140.480469 L 127.3125 137.632812 C 130.695312 133.898438 132.917969 126.421875 132.207031 121.085938 C 131.941406 118.859375 131.226562 116.636719 130.78125 116.191406 C 130.25 115.660156 129.894531 115.480469 129.804688 115.660156 Z M 125.445312 149.464844 C 127.578125 155.070312 127.3125 157.828125 124.820312 157.296875 C 123.042969 156.941406 118.773438 147.507812 119.484375 145.550781 C 119.839844 144.75 120.820312 144.128906 121.707031 144.128906 C 123.042969 144.128906 123.933594 145.460938 125.445312 149.464844 Z M 125.445312 149.464844 "/>
<path style=" stroke:none;fill-rule:nonzero;fill:rgb(0%,0%,0%);fill-opacity:1;" d="M 50.179688 164.144531 C 49.820312 164.859375 49.820312 166.101562 50.179688 166.816406 C 50.890625 168.859375 136.210938 168.859375 137.898438 166.816406 C 139.679688 164.589844 137.457031 162.8125 133.097656 162.898438 L 129.449219 163.078125 L 133.007812 163.613281 C 135.320312 163.96875 136.566406 164.589844 136.566406 165.480469 C 136.566406 166.636719 131.226562 166.816406 93.859375 166.816406 C 54.714844 166.816406 51.15625 166.726562 50.890625 165.300781 C 50.710938 164.324219 51.335938 163.699219 52.667969 163.433594 L 54.714844 163.078125 L 52.667969 162.898438 C 51.601562 162.898438 50.445312 163.433594 50.179688 164.144531 Z M 50.179688 164.144531 "/>
<path style=" stroke:none;fill-rule:nonzero;fill:rgb(0%,0%,0%);fill-opacity:1;" d="M 67.882812 163.433594 C 69.660156 163.613281 72.6875 163.613281 74.554688 163.433594 C 76.335938 163.257812 74.820312 163.078125 71.175781 163.078125 C 67.527344 163.078125 66.015625 163.257812 67.882812 163.433594 Z M 67.882812 163.433594 "/>
<path style=" stroke:none;fill-rule:nonzero;fill:rgb(0%,0%,0%);fill-opacity:1;" d="M 89.589844 163.433594 C 91.191406 163.613281 94.039062 163.613281 95.820312 163.433594 C 97.6875 163.257812 96.441406 163.078125 92.972656 163.078125 C 89.589844 163.078125 88.078125 163.257812 89.589844 163.433594 Z M 89.589844 163.433594 "/>
<path style=" stroke:none;fill-rule:nonzero;fill:rgb(0%,0%,0%);fill-opacity:1;" d="M 110.585938 163.433594 C 112.367188 163.613281 115.390625 163.613281 117.261719 163.433594 C 119.039062 163.257812 117.527344 163.078125 113.878906 163.078125 C 110.230469 163.078125 108.71875 163.257812 110.585938 163.433594 Z M 110.585938 163.433594 "/>
</g>
</svg>
