<?xml version="1.0" encoding="UTF-8"?>
<svg xmlns="http://www.w3.org/2000/svg" xmlns:xlink="http://www.w3.org/1999/xlink" width="200px" height="200px" viewBox="0 0 200 200" version="1.1">
<g id="surface1">
<path style=" stroke:none;fill-rule:nonzero;fill:rgb(0%,0%,0%);fill-opacity:1;" d="M 76.132812 31.066406 C 74.199219 31.535156 72 32.265625 71.332031 32.667969 C 70.667969 33 69.265625 33.332031 68.332031 33.332031 C 66.265625 33.332031 66.332031 34.867188 68.398438 35.199219 C 69.332031 35.332031 69.464844 35.265625 68.734375 34.800781 C 68.066406 34.332031 68.464844 34.066406 70.066406 33.800781 C 71.332031 33.601562 74.933594 32.933594 78.132812 32.332031 C 83.867188 31.199219 83.933594 31.199219 86.199219 32.601562 C 87.464844 33.398438 89.601562 35.199219 90.933594 36.667969 C 92.265625 38.132812 93.332031 38.933594 93.332031 38.464844 C 93.332031 37.464844 87.667969 31.800781 85.535156 30.734375 C 83.601562 29.800781 80.464844 29.867188 76.132812 31.066406 Z M 76.132812 31.066406 "/>
<path style=" stroke:none;fill-rule:nonzero;fill:rgb(0%,0%,0%);fill-opacity:1;" d="M 107.867188 34.398438 C 107.667969 34.601562 104.535156 35.800781 100.867188 37.066406 C 95.132812 39.132812 94.734375 39.332031 97.535156 39.066406 C 99.332031 38.867188 102.132812 38.066406 103.800781 37.332031 C 107.667969 35.667969 108.332031 36.199219 105.464844 38.667969 C 103.601562 40.199219 103.464844 40.535156 104.332031 40.933594 C 105.332031 41.265625 105.265625 41.535156 103.933594 42.734375 L 102.332031 44.066406 L 104.535156 42.933594 C 106.867188 41.601562 107.265625 40.667969 105.535156 40.667969 C 104.464844 40.601562 104.464844 40.535156 105.667969 39.601562 C 107.535156 38.132812 111.332031 38.867188 116.601562 41.667969 L 120.933594 44 L 124.332031 42.265625 C 129.867188 39.601562 131.800781 39.535156 136.398438 41.933594 C 144.066406 46 146 47.199219 145.199219 47.464844 C 144.601562 47.667969 144.734375 48.332031 145.667969 49.734375 C 146.398438 50.800781 147.464844 52.734375 148.066406 54 C 148.667969 55.265625 150.066406 57.464844 151.265625 58.933594 C 154.601562 63.066406 153.601562 65.867188 148.601562 66.667969 L 145.667969 67.132812 L 148.199219 67.265625 C 150.800781 67.332031 153.265625 66.398438 154.132812 65.066406 C 155.535156 63.066406 154.601562 60.132812 151.667969 57.066406 C 149.398438 54.601562 148.734375 53.464844 148.933594 52.199219 C 149.132812 51.199219 148.867188 50.464844 148.265625 50.199219 C 147.800781 50 147.535156 49.601562 147.734375 49.265625 C 147.933594 48.933594 147.398438 48.667969 146.535156 48.667969 C 145.132812 48.601562 145.132812 48.535156 146.199219 47.933594 C 147.199219 47.332031 147 47 144.199219 44.933594 C 142.398438 43.734375 139.066406 41.667969 136.667969 40.398438 C 132.535156 38.265625 132.199219 38.199219 129.535156 39 C 128 39.464844 125.398438 40.601562 123.800781 41.464844 L 120.800781 43.132812 L 117.265625 40.867188 C 115.265625 39.667969 112.464844 38.332031 111 37.933594 C 107.800781 37.066406 107 36.066406 108.535156 34.867188 C 109.132812 34.398438 109.332031 34 108.933594 34 C 108.535156 34 108.066406 34.199219 107.867188 34.398438 Z M 107.867188 34.398438 "/>
<path style=" stroke:none;fill-rule:nonzero;fill:rgb(0%,0%,0%);fill-opacity:1;" d="M 64.867188 36.265625 C 64.464844 36.800781 64.265625 37.398438 64.464844 37.601562 C 64.734375 37.800781 64.535156 38 64.132812 38 C 63.667969 38 63.398438 38.332031 63.535156 38.800781 C 63.601562 39.199219 61.933594 40.667969 59.800781 41.933594 C 55.734375 44.464844 53.667969 47.199219 54.332031 49.265625 C 54.800781 50.734375 58 53.867188 58 52.867188 C 58 52.464844 57.535156 51.800781 57 51.332031 C 55.601562 50.132812 55.734375 46.933594 57.332031 45.332031 C 58.066406 44.601562 58.933594 44 59.332031 44 C 60.398438 44 64.667969 39.933594 64.667969 38.933594 C 64.667969 38.398438 65.066406 38 65.601562 38 C 66.066406 38 66.867188 37.601562 67.265625 37.066406 C 67.867188 36.332031 67.800781 36.066406 66.933594 35.734375 C 65.667969 35.265625 65.800781 35.199219 64.867188 36.265625 Z M 64.867188 36.265625 "/>
<path style=" stroke:none;fill-rule:nonzero;fill:rgb(0%,0%,0%);fill-opacity:1;" d="M 75.667969 37.601562 C 69 40.199219 67.667969 40.800781 68.332031 41.066406 C 68.734375 41.199219 71.734375 40.464844 75 39.332031 L 80.933594 37.332031 L 82.535156 39.132812 C 84.199219 41.132812 84.199219 40.800781 82.734375 37.800781 C 81.601562 35.667969 80.867188 35.601562 75.667969 37.601562 Z M 75.667969 37.601562 "/>
<path style=" stroke:none;fill-rule:nonzero;fill:rgb(0%,0%,0%);fill-opacity:1;" d="M 61.734375 45.464844 C 59.867188 47.933594 60 48.464844 63.066406 49.734375 C 66.464844 51.132812 68.066406 50.734375 64.867188 49.332031 C 63.265625 48.601562 62 47.867188 62 47.601562 C 62 47.398438 62.601562 46.332031 63.398438 45.265625 C 65.265625 42.601562 63.867188 42.800781 61.734375 45.464844 Z M 61.734375 45.464844 "/>
<path style=" stroke:none;fill-rule:nonzero;fill:rgb(0%,0%,0%);fill-opacity:1;" d="M 130.332031 47 C 128.066406 48.867188 128.535156 49.199219 131.066406 47.601562 C 132.667969 46.535156 132.800781 46.601562 138.066406 50.601562 C 143.800781 55 145.132812 55.667969 142.601562 52.933594 C 140.867188 51 133.464844 45.332031 132.734375 45.332031 C 132.535156 45.332031 131.464844 46.066406 130.332031 47 Z M 130.332031 47 "/>
<path style=" stroke:none;fill-rule:nonzero;fill:rgb(0%,0%,0%);fill-opacity:1;" d="M 78.332031 52.464844 C 75 54.734375 75 54.734375 68.734375 54.332031 C 61.066406 53.933594 61.265625 55 69 55.933594 L 74.332031 56.535156 L 77.867188 54.199219 C 81.199219 51.933594 82.398438 50.800781 81.933594 50.398438 C 81.800781 50.265625 80.199219 51.199219 78.332031 52.464844 Z M 78.332031 52.464844 "/>
<path style=" stroke:none;fill-rule:nonzero;fill:rgb(0%,0%,0%);fill-opacity:1;" d="M 90.132812 51.132812 C 87.667969 52.332031 84 57.199219 84 59.265625 C 84 60 84.332031 61.398438 84.734375 62.464844 C 85.265625 63.867188 85.199219 64.398438 84.601562 64.601562 C 82.667969 65.199219 78 72.132812 78 74.332031 C 78 75.332031 80.464844 71.667969 80.867188 70 C 81.132812 69.066406 82.535156 67.332031 84 66.132812 C 86.132812 64.332031 86.867188 64.066406 87.933594 64.667969 C 95.199219 68.535156 103.199219 56.867188 97 51.464844 C 94.933594 49.734375 93.132812 49.601562 90.132812 51.132812 Z M 95.332031 52 C 96.066406 52.398438 96.933594 53.332031 97.398438 54.066406 C 98.066406 55.398438 98.066406 55.398438 96.464844 54.332031 C 94.800781 53.265625 94.800781 53.265625 94.867188 55.464844 C 95 57.398438 94.800781 57.667969 93.132812 57.867188 C 91.933594 58 91.199219 57.734375 90.933594 57 C 90.265625 55.398438 89.332031 57.066406 89.332031 59.800781 C 89.332031 61.265625 89.867188 62.332031 91.066406 63.265625 L 92.867188 64.667969 L 91.132812 64.667969 C 88.933594 64.667969 85.332031 61.601562 85.332031 59.734375 C 85.332031 57.332031 87.601562 53.867188 90.066406 52.535156 C 92.667969 51.132812 93.601562 51.066406 95.332031 52 Z M 95.332031 52 "/>
<path style=" stroke:none;fill-rule:nonzero;fill:rgb(0%,0%,0%);fill-opacity:1;" d="M 112.867188 54.332031 C 109.933594 55.601562 108.464844 58.734375 108.867188 62.933594 C 109.132812 65.667969 109.535156 66.601562 111.601562 68.464844 C 114.199219 70.867188 116 71.132812 119.464844 69.734375 C 123.066406 68.199219 123.464844 67.398438 122.734375 62.800781 C 121.933594 57.933594 120.667969 55.800781 117.667969 54.398438 C 115.066406 53.132812 115.535156 53.132812 112.867188 54.332031 Z M 118.398438 56.332031 C 121.800781 58.667969 123.132812 65.535156 120.667969 68 C 119.199219 69.464844 113.800781 69.933594 113 68.667969 C 112.800781 68.265625 113.199219 68 113.933594 68 C 115.933594 68 118 65.667969 118 63.332031 C 118 61.535156 117.867188 61.398438 116.734375 62.132812 C 115.734375 62.734375 115.199219 62.734375 114.398438 62.066406 C 113.199219 61.066406 113 58.933594 114 58.332031 C 115.398438 57.464844 114.601562 56.535156 112.867188 56.933594 C 111.066406 57.332031 111.066406 57.332031 112.265625 56.332031 C 113.933594 55.066406 116.601562 55.066406 118.398438 56.332031 Z M 115.066406 64.066406 C 115.734375 65.199219 114.199219 66.464844 113.265625 65.535156 C 112.464844 64.734375 113 63.332031 114 63.332031 C 114.332031 63.332031 114.800781 63.667969 115.066406 64.066406 Z M 115.066406 64.066406 "/>
<path style=" stroke:none;fill-rule:nonzero;fill:rgb(0%,0%,0%);fill-opacity:1;" d="M 77.667969 60.132812 C 75.867188 63.132812 73.332031 66.800781 72.199219 68.265625 C 68.601562 72.800781 69.734375 78.601562 75.332031 83.734375 C 76.867188 85.132812 79 87.464844 80.132812 88.800781 C 81.800781 90.933594 81.933594 91.535156 81.332031 92.734375 C 80.734375 93.800781 80.734375 94.601562 81.332031 96 C 82.398438 98.535156 88.734375 104.464844 90.933594 105.066406 C 92 105.332031 92.667969 105.933594 92.667969 106.667969 C 92.667969 108.601562 94.601562 110.066406 96.867188 109.867188 C 98 109.734375 99 109.332031 99.132812 109 C 99.265625 108.535156 98.332031 108.398438 96.667969 108.535156 L 94 108.800781 L 94 105.332031 C 94 103.464844 94.332031 101.332031 94.667969 100.601562 C 95.398438 99.265625 98.667969 98.800781 98.667969 100 C 98.667969 100.398438 98.265625 100.601562 97.867188 100.535156 C 97.265625 100.398438 96.933594 101.535156 96.800781 104.265625 C 96.667969 107.464844 96.800781 108.066406 97.464844 107.601562 C 97.933594 107.199219 100 106.867188 102 106.800781 C 108.800781 106.535156 117.332031 100.933594 117.332031 96.800781 C 117.332031 95.667969 117.132812 94.601562 116.867188 94.464844 C 116.535156 94.265625 114.464844 95.265625 112.132812 96.667969 C 109.800781 98.066406 106.398438 99.601562 104.535156 100 C 101.464844 100.601562 101 100.601562 99.667969 99.332031 C 98.199219 97.933594 95.066406 97.535156 94.332031 98.667969 C 94.066406 99.066406 93.132812 98.933594 91.800781 98.199219 C 87.933594 96.265625 85.265625 93.800781 82.199219 89.535156 C 80.601562 87.265625 78.066406 84.332031 76.734375 83.199219 C 73.867188 80.734375 72.332031 78.066406 71.667969 74.535156 C 71.265625 72.398438 71.535156 71.734375 74.332031 67.933594 C 77.601562 63.464844 82.398438 54.667969 81.535156 54.667969 C 81.199219 54.667969 79.535156 57.132812 77.667969 60.132812 Z M 86.734375 96.667969 C 88.601562 98.132812 90.867188 99.535156 91.734375 99.734375 C 93.332031 100.132812 93.800781 101.601562 92.734375 103.199219 C 91.933594 104.464844 89.132812 102.933594 85.933594 99.535156 C 83.667969 97.199219 82 94 83 94 C 83.199219 94 84.867188 95.199219 86.734375 96.667969 Z M 114.933594 98.464844 C 113.398438 100.933594 112.265625 101.800781 108.332031 103.667969 C 106.398438 104.601562 103.464844 105.332031 101.332031 105.398438 C 97.667969 105.601562 97.667969 105.601562 97.667969 103.667969 C 97.667969 101.734375 97.667969 101.734375 101.867188 101.601562 C 105.332031 101.535156 106.933594 101.066406 110.535156 99.132812 C 116.066406 96.265625 116.464844 96.199219 114.933594 98.464844 Z M 114.933594 98.464844 "/>
<path style=" stroke:none;fill-rule:nonzero;fill:rgb(0%,0%,0%);fill-opacity:1;" d="M 146.265625 58.398438 C 146.464844 59 146.867188 60.199219 147.066406 61.066406 C 147.464844 62.601562 147.332031 62.667969 144.398438 62.667969 C 142.734375 62.667969 141.332031 62.933594 141.332031 63.332031 C 141.332031 64.132812 148.464844 64.265625 148.933594 63.464844 C 149.265625 62.867188 146.933594 57.332031 146.265625 57.332031 C 146.066406 57.332031 146.066406 57.800781 146.265625 58.398438 Z M 146.265625 58.398438 "/>
<path style=" stroke:none;fill-rule:nonzero;fill:rgb(0%,0%,0%);fill-opacity:1;" d="M 128 58.199219 C 128 58.464844 129.199219 60.332031 130.601562 62.265625 C 133.398438 66 134.132812 66.332031 142.199219 67.667969 C 146.800781 68.398438 144.734375 66.933594 139.535156 65.734375 C 134.734375 64.667969 134.132812 64.332031 131.199219 61.132812 C 129.464844 59.199219 128 57.933594 128 58.199219 Z M 128 58.199219 "/>
<path style=" stroke:none;fill-rule:nonzero;fill:rgb(0%,0%,0%);fill-opacity:1;" d="M 129 67.332031 C 129.132812 69.734375 130 74.132812 130.867188 77.199219 L 132.464844 82.734375 L 130.667969 85.535156 C 128.199219 89.332031 127 90.265625 122.132812 92 C 116.535156 94.066406 117.464844 94.535156 123.332031 92.667969 C 127.199219 91.398438 128.535156 90.601562 130.734375 88.132812 C 134.066406 84.332031 134.398438 82.867188 132.933594 78.535156 C 132.265625 76.601562 131.066406 72.265625 130.199219 69 L 128.667969 63 Z M 129 67.332031 "/>
<path style=" stroke:none;fill-rule:nonzero;fill:rgb(0%,0%,0%);fill-opacity:1;" d="M 95.332031 68.667969 C 94.601562 69.398438 94 70.601562 94 71.332031 C 94 73.667969 95.734375 77.066406 97.734375 78.601562 C 99.265625 79.800781 99.464844 80.332031 98.933594 81.199219 C 97.398438 83.601562 90.601562 83.933594 87.667969 81.734375 C 86.867188 81.132812 86.332031 79.734375 86.132812 77.199219 C 85.800781 72.800781 86.734375 70.667969 89 70.667969 C 91.332031 70.667969 92.199219 72.734375 91.667969 76.933594 C 91.332031 79.464844 91.464844 80.601562 92.132812 81.132812 C 92.867188 81.734375 93 81 92.933594 77.132812 C 92.867188 71.265625 92 69.332031 89.332031 69.332031 C 86.398438 69.332031 84.535156 72.132812 84.800781 76.132812 C 84.933594 77.933594 84.933594 79.332031 84.867188 79.332031 C 84.800781 79.332031 84.199219 78.398438 83.667969 77.265625 C 82.464844 75 81.601562 75.066406 82.332031 77.332031 C 83.199219 80.132812 86.734375 83.265625 90.066406 84.265625 C 93.265625 85.265625 95.667969 85 98.398438 83.464844 C 99.265625 83 99.933594 83.265625 101.265625 84.800781 C 105.464844 89.535156 114.398438 88.132812 118.066406 82.199219 C 120 79.132812 119.265625 78.667969 117.066406 81.535156 C 114.800781 84.535156 111.667969 86 107.667969 86 C 105.132812 86 104.199219 85.667969 102.601562 84.066406 C 101.535156 83 100.667969 81.800781 100.667969 81.398438 C 100.667969 81 101.800781 80.132812 103.199219 79.398438 C 106 78 110 73.867188 110 72.398438 C 110 71.464844 107.667969 69.199219 105.535156 68.066406 C 104.734375 67.667969 102.398438 67.332031 100.398438 67.332031 C 97.535156 67.332031 96.332031 67.667969 95.332031 68.667969 Z M 105.601562 71.332031 C 107.265625 72.933594 106.667969 74.199219 103.332031 76.398438 L 100.535156 78.265625 L 98.601562 76.066406 C 96.464844 73.535156 96.066406 71.066406 97.800781 70.132812 C 99.398438 69.199219 104.132812 69.933594 105.601562 71.332031 Z M 105.601562 71.332031 "/>
<path style=" stroke:none;fill-rule:nonzero;fill:rgb(0%,0%,0%);fill-opacity:1;" d="M 116 71.667969 C 116 71.867188 117.132812 72.734375 118.535156 73.601562 C 122.933594 76.398438 123.933594 83.734375 120.132812 84.933594 C 119.398438 85.199219 118.601562 86.132812 118.398438 87 C 118.199219 87.867188 117.066406 89.199219 116 90 C 114.867188 90.800781 113.667969 92.066406 113.199219 92.867188 C 112.601562 94 112.867188 93.933594 114.667969 92.332031 C 117.066406 90.132812 117.535156 89.601562 120.933594 85.464844 C 124.800781 80.734375 124 76.132812 118.667969 72.464844 C 117.066406 71.332031 116 71 116 71.667969 Z M 116 71.667969 "/>
<path style=" stroke:none;fill-rule:nonzero;fill:rgb(0%,0%,0%);fill-opacity:1;" d="M 77.332031 76.066406 C 77.398438 77.535156 80.601562 83.800781 80.601562 82.535156 C 80.667969 81.933594 79.933594 80 79 78.265625 C 78.066406 76.535156 77.332031 75.535156 77.332031 76.066406 Z M 77.332031 76.066406 "/>
<path style=" stroke:none;fill-rule:nonzero;fill:rgb(0%,0%,0%);fill-opacity:1;" d="M 88.066406 77.867188 C 88 79.734375 89.132812 82 90.132812 82 C 90.601562 82 90.601562 81.667969 90.066406 81.066406 C 89.601562 80.535156 89 79.265625 88.667969 78.199219 C 88.199219 76.535156 88.132812 76.464844 88.066406 77.867188 Z M 88.066406 77.867188 "/>
<path style=" stroke:none;fill-rule:nonzero;fill:rgb(0%,0%,0%);fill-opacity:1;" d="M 79.535156 99.132812 C 78.867188 100.066406 77.066406 104.667969 75.535156 109.265625 C 73.332031 115.601562 72.867188 117.734375 73.535156 118.132812 C 74.535156 118.800781 75.535156 118.464844 75.867188 117.464844 C 76 117 75.734375 116.800781 75.066406 117.066406 C 74.464844 117.265625 74 117.199219 74 116.933594 C 74 116.464844 77.265625 107.667969 80.601562 99.132812 C 81.464844 96.867188 81.066406 96.800781 79.535156 99.132812 Z M 79.535156 99.132812 "/>
<path style=" stroke:none;fill-rule:nonzero;fill:rgb(0%,0%,0%);fill-opacity:1;" d="M 118 99.464844 C 118 99.601562 118.734375 101.066406 119.601562 102.867188 C 121 105.601562 121.933594 110.199219 122.265625 116.535156 C 122.332031 117.535156 122.601562 118.734375 122.867188 119.132812 C 123.265625 119.734375 122.933594 120 121.867188 120 C 120.464844 120.066406 120.464844 120.199219 122.667969 121.933594 C 123.933594 123 125.132812 123.734375 125.332031 123.535156 C 125.535156 123.398438 124.933594 122.667969 124.066406 121.933594 C 122.867188 120.933594 122.734375 120.667969 123.601562 120.667969 C 124.535156 120.667969 124.601562 120.464844 123.933594 119.132812 C 123.464844 118.332031 123.199219 116.265625 123.265625 114.535156 C 123.601562 108.601562 120.734375 99.332031 118.601562 99.332031 C 118.265625 99.332031 118 99.398438 118 99.464844 Z M 118 99.464844 "/>
<path style=" stroke:none;fill-rule:nonzero;fill:rgb(0%,0%,0%);fill-opacity:1;" d="M 80.535156 113.535156 C 79.601562 115.800781 80 126.601562 81.398438 136.734375 C 83.066406 148.734375 82.867188 150 78.199219 155.734375 C 75.867188 158.601562 75.132812 160 75.199219 161.667969 C 75.265625 163.535156 74.933594 164 73.066406 164.933594 C 71.667969 165.601562 69 166 66.199219 166 C 63.066406 166 62 166.199219 62.667969 166.667969 C 64.464844 167.867188 71.464844 167.464844 73.800781 166 L 75.933594 164.734375 L 78.535156 167.398438 C 81.398438 170.199219 83 170.535156 87.464844 169.199219 C 90.800781 168.199219 94 164.667969 94 161.933594 C 94 160.867188 93.398438 158.800781 92.667969 157.332031 C 91.800781 155.667969 91.332031 153.398438 91.332031 151 C 91.332031 148.667969 91.066406 147.398438 90.667969 147.667969 C 89.535156 148.398438 89.933594 154.800781 91.332031 157.933594 C 92.066406 159.535156 92.667969 161.265625 92.667969 161.800781 C 92.667969 163.535156 90.800781 166.398438 89.066406 167.199219 C 87.535156 167.867188 87.332031 167.800781 86.667969 165.601562 C 86.199219 164.332031 86.066406 162.535156 86.265625 161.601562 C 86.535156 160.734375 86.398438 160 86.066406 160 C 85 160 84.535156 164.132812 85.265625 166.199219 C 86.265625 168.734375 86.265625 168.667969 83.734375 168.667969 C 80.535156 168.667969 79.734375 167.398438 80.265625 163.132812 C 80.667969 159.933594 80.601562 159.800781 79.667969 160.933594 C 79.132812 161.667969 78.667969 163.132812 78.667969 164.265625 C 78.667969 166.667969 77.601562 165.933594 76.734375 162.800781 C 76.199219 160.933594 76.464844 160.332031 79.667969 156.066406 C 84.066406 150.265625 84.464844 148.132812 82.933594 138.667969 C 82.332031 134.800781 81.667969 127.332031 81.398438 122 C 81.199219 116.601562 80.800781 112.867188 80.535156 113.535156 Z M 80.535156 113.535156 "/>
<path style=" stroke:none;fill-rule:nonzero;fill:rgb(0%,0%,0%);fill-opacity:1;" d="M 113.066406 113.667969 C 112.867188 114.265625 111.867188 114.667969 110.667969 114.667969 C 108.601562 114.667969 108.132812 115.535156 109.332031 117.332031 C 109.867188 118.199219 110 118.132812 110 117.132812 C 110 116.398438 111 115.601562 112.667969 114.933594 C 114.132812 114.332031 115.132812 113.601562 114.933594 113.265625 C 114.398438 112.332031 113.535156 112.535156 113.066406 113.667969 Z M 113.066406 113.667969 "/>
<path style=" stroke:none;fill-rule:nonzero;fill:rgb(0%,0%,0%);fill-opacity:1;" d="M 116.867188 120.535156 C 116.800781 124.867188 116.132812 132.464844 115.398438 137.535156 C 113.734375 148.667969 114.066406 150.933594 118.332031 155.933594 C 121.800781 160 122.265625 161.199219 121.265625 163.734375 L 120.464844 165.667969 L 120 163.464844 C 119.734375 162.199219 119.132812 160.867188 118.734375 160.464844 C 118.132812 159.867188 118.066406 160.601562 118.398438 163.464844 C 118.800781 166.933594 118.734375 167.265625 117.132812 168.332031 C 115 169.667969 112.332031 169.132812 113 167.464844 C 114.066406 164.800781 114.066406 162.265625 113 161 C 111.933594 159.667969 111.933594 159.734375 112.265625 161.398438 C 112.734375 163.601562 111.535156 168 110.464844 168 C 109 168 106.867188 166.132812 106 164 C 105.265625 162.265625 105.332031 161.535156 106.667969 158.464844 C 108.265625 154.800781 108.734375 150.601562 107.734375 148.332031 C 106.867188 146.332031 106.734375 141.132812 107.601562 140 C 108.265625 139.132812 108.199219 139.132812 107.066406 140 C 105.867188 140.933594 105.800781 140.933594 106.265625 139.667969 C 108 135.398438 106.933594 126.933594 104.332031 123.667969 C 103.199219 122.332031 103.199219 122.332031 103.734375 123.667969 C 104 124.398438 104.601562 126.933594 105.199219 129.265625 C 106.199219 133.464844 105.867188 138 104.332031 141.601562 C 103.933594 142.464844 104 142.734375 104.464844 142.464844 C 104.933594 142.199219 105.199219 142.601562 105.132812 143.535156 C 105.066406 145.464844 105.464844 146.800781 106.535156 147.867188 C 106.933594 148.332031 107.332031 149.734375 107.332031 150.867188 C 107.265625 152.867188 106.800781 154.398438 104.601562 159.800781 C 103.867188 161.601562 103.933594 162.265625 104.933594 164.601562 C 106.199219 167.332031 108.066406 168.601562 112.734375 169.867188 C 115.800781 170.667969 118.535156 169.601562 120.800781 166.667969 L 122.464844 164.535156 L 124.734375 165.933594 C 127.199219 167.464844 134.132812 167.867188 136 166.667969 C 136.667969 166.199219 135.601562 166 132.332031 166 C 126.199219 166 123 164.535156 123 161.667969 C 123 160.265625 122.066406 158.464844 119.867188 155.800781 C 115.265625 150.199219 114.933594 148.398438 116.601562 137.601562 C 118 128.867188 118.535156 113.734375 117.464844 113.066406 C 117.199219 112.933594 116.933594 116.265625 116.867188 120.535156 Z M 116.867188 120.535156 "/>
<path style=" stroke:none;fill-rule:nonzero;fill:rgb(0%,0%,0%);fill-opacity:1;" d="M 151.867188 116.800781 C 151.332031 117.667969 150.667969 119.066406 150.332031 120 C 149.535156 122.800781 145.332031 130.132812 142.867188 133.199219 C 141.601562 134.734375 139 136.933594 137.132812 138 L 133.667969 140 L 136.199219 140 C 137.535156 140 138.667969 139.667969 138.667969 139.332031 C 138.667969 138.933594 139.132812 138.667969 139.734375 138.667969 C 140.265625 138.667969 140.601562 138.398438 140.398438 138.066406 C 140.199219 137.734375 140.800781 137.265625 141.734375 137.066406 C 142.734375 136.800781 143.332031 136.464844 143.132812 136.265625 C 142.933594 136.066406 144.199219 133.667969 145.933594 131 C 147.667969 128.332031 149.933594 124.199219 151 121.734375 C 153.667969 115.398438 155.332031 116.132812 155.332031 123.667969 C 155.332031 127.066406 153.535156 131.933594 151.535156 134.132812 C 150.933594 134.800781 150.734375 135.332031 151.066406 135.332031 C 152.265625 135.332031 153.132812 134.265625 154.867188 130.734375 C 156.933594 126.535156 157.265625 121.398438 155.734375 117.667969 C 154.601562 115 153.265625 114.667969 151.867188 116.800781 Z M 151.867188 116.800781 "/>
<path style=" stroke:none;fill-rule:nonzero;fill:rgb(0%,0%,0%);fill-opacity:1;" d="M 86.332031 118 L 84.332031 118.535156 L 86.332031 118.601562 C 87.464844 118.667969 89.332031 119.601562 90.601562 120.667969 C 93.800781 123.398438 94.132812 122.535156 91 119.667969 C 89.535156 118.398438 88.398438 117.398438 88.398438 117.398438 C 88.332031 117.464844 87.464844 117.734375 86.332031 118 Z M 86.332031 118 "/>
<path style=" stroke:none;fill-rule:nonzero;fill:rgb(0%,0%,0%);fill-opacity:1;" d="M 72.132812 119.464844 C 70.734375 120.867188 71.265625 121.601562 72.734375 120.265625 L 74.199219 119 L 73 121.332031 C 72.199219 122.867188 72.066406 123.667969 72.601562 123.867188 C 73 124 73.332031 124.601562 73.332031 125.132812 C 73.332031 126.066406 73.199219 126.066406 72.066406 125.066406 C 71.398438 124.464844 69.800781 123.800781 68.535156 123.601562 C 66.734375 123.265625 65.867188 123.535156 64.199219 124.933594 C 62.132812 126.667969 60.332031 131.535156 61 133.601562 C 61.199219 134.199219 61.464844 135.132812 61.667969 135.734375 C 61.933594 136.667969 62.199219 136.667969 63.066406 135.933594 C 64.066406 135.132812 64.132812 135.265625 63.734375 137.066406 C 63.464844 138.199219 63.601562 139.800781 63.933594 140.734375 C 64.265625 141.601562 64.601562 141.933594 64.601562 141.464844 C 64.734375 139.601562 65.867188 140.867188 66.535156 143.535156 C 66.933594 145.132812 68 147.464844 68.933594 148.800781 L 70.535156 151.199219 L 68.265625 151.535156 C 63.066406 152.398438 59 156.867188 59.800781 160.800781 C 60 161.867188 60.398438 162.667969 60.667969 162.667969 C 61 162.667969 61.066406 162.132812 60.867188 161.464844 C 60.734375 160.734375 61 159.066406 61.601562 157.734375 C 62.867188 154.734375 66.800781 152.734375 71.667969 152.601562 C 74.535156 152.601562 74.734375 152.464844 73.332031 151.933594 C 71.398438 151.199219 68.199219 146.464844 67.601562 143.398438 C 67.332031 142.265625 66.867188 141.132812 66.601562 140.933594 C 66.265625 140.734375 66.332031 140 66.667969 139.265625 C 67.535156 137.667969 67.132812 137.667969 65.601562 139.132812 C 64.535156 140.265625 64.464844 140.066406 64.800781 136.132812 C 65.066406 133.867188 65.066406 132 64.933594 132 C 64.800781 132 64.066406 133 63.332031 134.132812 L 62 136.332031 L 62 133.667969 C 62 130.199219 64.132812 125.601562 65.933594 125 C 69.800781 123.800781 73.066406 126.332031 76.867188 133.398438 C 79.535156 138.464844 79.066406 136 76.265625 130.464844 C 74.734375 127.332031 74 125.066406 74.132812 123.867188 C 74.332031 122.867188 74.132812 122 73.800781 122 C 73.464844 122 73.535156 121.535156 74 121 C 75.398438 119.332031 73.734375 117.867188 72.132812 119.464844 Z M 72.132812 119.464844 "/>
<path style=" stroke:none;fill-rule:nonzero;fill:rgb(0%,0%,0%);fill-opacity:1;" d="M 106.933594 119.601562 C 106.734375 120.199219 106.132812 120.667969 105.601562 120.667969 C 105.066406 120.667969 104.667969 120.933594 104.667969 121.332031 C 104.667969 122.332031 105.464844 122.132812 107.265625 120.734375 C 108.332031 119.933594 108.601562 119.398438 108.066406 119.066406 C 107.667969 118.800781 107.132812 119.066406 106.933594 119.601562 Z M 106.933594 119.601562 "/>
<path style=" stroke:none;fill-rule:nonzero;fill:rgb(0%,0%,0%);fill-opacity:1;" d="M 93 124.933594 C 90.800781 130.199219 90.535156 136.867188 92.332031 140.066406 C 92.734375 140.800781 92.667969 140.867188 91.933594 140.132812 C 90.734375 139 89.667969 139.132812 90.601562 140.265625 C 91.132812 140.867188 91.265625 142.132812 91 143.464844 C 90.734375 145 90.867188 146 91.464844 146.535156 C 92.199219 147.066406 92.398438 147 92.464844 146.132812 C 92.667969 143.734375 93 142.332031 93.464844 142 C 93.734375 141.800781 93.464844 140.265625 92.933594 138.667969 C 91.800781 135.332031 92.066406 130.464844 93.734375 125.800781 C 94.933594 122.398438 94.332031 121.667969 93 124.933594 Z M 93 124.933594 "/>
<path style=" stroke:none;fill-rule:nonzero;fill:rgb(0%,0%,0%);fill-opacity:1;" d="M 122.867188 124.867188 C 122.867188 126.066406 121.867188 129.265625 120.734375 131.867188 C 118 138 118.132812 138.667969 121 133.535156 C 123.800781 128.601562 126.734375 126 129.398438 126 C 132.601562 126 133.933594 127.867188 135.535156 135 C 135.734375 135.734375 135.867188 135.066406 135.933594 133.464844 C 136.066406 127 131.265625 122.867188 126.464844 125.398438 C 125.601562 125.933594 125 125.933594 124.867188 125.535156 C 124.734375 125.132812 124.265625 124.332031 123.800781 123.734375 C 123.066406 122.667969 122.933594 122.800781 122.867188 124.867188 Z M 122.867188 124.867188 "/>
<path style=" stroke:none;fill-rule:nonzero;fill:rgb(0%,0%,0%);fill-opacity:1;" d="M 132.265625 135.265625 C 132.464844 136.464844 132.734375 138.734375 132.734375 140.265625 C 132.800781 142.667969 132.933594 142.464844 133.332031 139 C 133.800781 135.800781 133.667969 134.800781 132.867188 134 C 131.933594 133.132812 131.867188 133.199219 132.265625 135.265625 Z M 132.265625 135.265625 "/>
<path style=" stroke:none;fill-rule:nonzero;fill:rgb(0%,0%,0%);fill-opacity:1;" d="M 152.667969 135.667969 C 151.398438 136.933594 150.734375 138 151.066406 138 C 151.933594 138 155.667969 134.132812 155.265625 133.667969 C 155.066406 133.535156 153.867188 134.398438 152.667969 135.667969 Z M 152.667969 135.667969 "/>
<path style=" stroke:none;fill-rule:nonzero;fill:rgb(0%,0%,0%);fill-opacity:1;" d="M 151.800781 139.066406 C 150.601562 140.398438 148.398438 142.199219 146.867188 143.132812 C 143 145.398438 143.199219 145.734375 147.199219 143.734375 C 151.066406 141.667969 152.933594 140.132812 153.933594 138.132812 C 155.066406 135.933594 154.199219 136.332031 151.800781 139.066406 Z M 151.800781 139.066406 "/>
<path style=" stroke:none;fill-rule:nonzero;fill:rgb(0%,0%,0%);fill-opacity:1;" d="M 130.464844 140.132812 C 131.398438 141.199219 131.132812 142.066406 128 148.132812 C 127.332031 149.535156 127.066406 150.667969 127.398438 150.667969 C 127.734375 150.667969 128.398438 149.933594 128.800781 149 C 129.535156 147.398438 129.800781 147.332031 132.601562 147.800781 C 137.332031 148.601562 143.398438 148.265625 147.199219 147.066406 C 151.132812 145.734375 151.734375 144.667969 148.535156 144.667969 C 147.066406 144.667969 146.601562 144.867188 147.199219 145.265625 C 148.464844 146.066406 147.265625 146.398438 141.800781 147 C 139 147.332031 136.132812 147.199219 134 146.667969 C 130.734375 145.867188 130.535156 145.734375 131 144.066406 C 131.734375 140.933594 131.667969 139.800781 130.667969 139.464844 C 129.867188 139.199219 129.800781 139.265625 130.464844 140.132812 Z M 130.464844 140.132812 "/>
<path style=" stroke:none;fill-rule:nonzero;fill:rgb(0%,0%,0%);fill-opacity:1;" d="M 125 152 C 123.933594 152.464844 124.199219 152.601562 126.332031 152.601562 C 132.933594 152.734375 137.332031 155.867188 137.332031 160.398438 C 137.332031 161.800781 137.601562 162.601562 138 162.332031 C 139.199219 161.601562 138.734375 157.601562 137.199219 155.667969 C 134.535156 152.265625 128.535156 150.464844 125 152 Z M 125 152 "/>
<path style=" stroke:none;fill-rule:nonzero;fill:rgb(0%,0%,0%);fill-opacity:1;" d="M 95.132812 158.132812 C 94.132812 158.867188 94.601562 159 98.601562 159 C 103.601562 159 104 158.066406 99.199219 157.535156 C 97.398438 157.332031 95.867188 157.535156 95.132812 158.132812 Z M 95.132812 158.132812 "/>
</g>
</svg>
