<?xml version="1.0" encoding="UTF-8"?>
<svg xmlns="http://www.w3.org/2000/svg" xmlns:xlink="http://www.w3.org/1999/xlink" width="200px" height="200px" viewBox="0 0 200 200" version="1.1">
<g id="surface1">
<path style=" stroke:none;fill-rule:nonzero;fill:rgb(0%,0%,0%);fill-opacity:1;" d="M 21.332031 68.800781 C 21.332031 69.265625 22.398438 73.398438 23.667969 77.933594 C 26.734375 88.867188 28.265625 99.398438 27.734375 106 C 27.199219 112.265625 25.734375 118.199219 23.933594 121.265625 C 23.199219 122.464844 22.734375 123.601562 22.800781 123.734375 C 22.933594 123.800781 29.199219 120.933594 36.667969 117.265625 C 44.199219 113.535156 51.933594 109.800781 53.800781 108.933594 L 57.332031 107.265625 L 62.535156 111.265625 C 96.535156 137.132812 133.332031 138 163.800781 113.535156 C 168.535156 109.800781 175.332031 103.265625 175.332031 102.464844 C 175.332031 101.933594 171.199219 104.933594 168.332031 107.535156 C 167.601562 108.199219 166.132812 109.398438 165.066406 110.199219 C 164 111 162.667969 112.132812 162.066406 112.667969 C 156.867188 117.398438 147.667969 122.464844 137.199219 126.332031 L 131.398438 128.464844 L 130.132812 125.398438 C 126.464844 116.933594 125 105.734375 125.535156 90.332031 C 125.933594 80.601562 126.800781 71.667969 127.535156 70.933594 C 127.867188 70.601562 138.867188 73.933594 143.332031 75.800781 C 147.066406 77.332031 160.398438 84.867188 161.332031 85.933594 C 161.535156 86.199219 162.867188 87.199219 164.332031 88.332031 C 165.800781 89.398438 168.464844 91.667969 170.199219 93.332031 C 171.933594 95 174.332031 96.867188 175.464844 97.464844 L 177.601562 98.601562 L 173.199219 100.667969 C 170.800781 101.800781 166.265625 103.332031 163.066406 104.132812 C 159.933594 104.933594 157.332031 105.800781 157.332031 106.066406 C 157.332031 107.332031 175.734375 101.667969 177.867188 99.667969 C 178.535156 99.066406 177.734375 97.933594 173.667969 94.066406 C 162 83 147.265625 74.332031 134.332031 70.933594 C 121.398438 67.601562 105.535156 68.132812 92.132812 72.332031 C 85.464844 74.464844 76.066406 78.734375 77.199219 79.132812 C 77.667969 79.332031 79.199219 78.867188 80.535156 78.199219 L 83.066406 76.933594 L 83.800781 79.132812 C 84.398438 81.132812 84.332031 81.332031 83 81.332031 C 82.199219 81.332031 80.199219 80.867188 78.535156 80.265625 C 75.535156 79.265625 75.464844 79.265625 71.933594 81.398438 C 67.734375 83.800781 62.933594 87.199219 58.667969 90.734375 L 55.667969 93.199219 L 45.332031 85.265625 C 32 75 21.332031 67.667969 21.332031 68.800781 Z M 113.734375 70.800781 C 113.132812 71.601562 112.667969 72.867188 112.667969 73.535156 C 112.667969 74.601562 112.199219 74.398438 109.601562 72.535156 L 106.464844 70.332031 L 110.066406 69.933594 C 112.066406 69.734375 113.933594 69.535156 114.199219 69.464844 C 114.535156 69.398438 114.265625 70 113.734375 70.800781 Z M 125.535156 71.800781 C 123.066406 94.265625 123.933594 111 128.265625 123.398438 C 129.199219 126.066406 129.867188 128.332031 129.800781 128.332031 C 129.734375 128.398438 128.066406 128.800781 126.132812 129.132812 C 123.464844 129.667969 122.464844 129.601562 122.265625 129 C 121.867188 128 123.132812 124.667969 124.535156 123.066406 C 125.601562 121.867188 125.601562 121.800781 124 122.265625 C 119.464844 123.667969 118.265625 123.535156 116.464844 121.332031 C 113.265625 117.601562 114.332031 113.734375 119.332031 110.667969 L 121.667969 109.265625 L 119.132812 109.734375 C 115.933594 110.265625 114.265625 108.933594 113.667969 105.332031 C 113.132812 102.132812 114.601562 99.066406 117.332031 97.667969 C 118.464844 97.066406 119.332031 96.332031 119.332031 95.933594 C 119.332031 95.535156 119 95.464844 118.601562 95.667969 C 118.199219 95.933594 116.867188 95.933594 115.601562 95.734375 C 111.535156 94.933594 109.734375 88.332031 112.867188 85.535156 C 114.265625 84.199219 115 83.933594 118.800781 83.066406 L 120.667969 82.667969 L 117.332031 79.464844 C 113.667969 75.867188 113.066406 73.601562 115.265625 71.398438 C 116.398438 70.265625 117.265625 70.132812 121.132812 70.332031 C 125 70.601562 125.667969 70.800781 125.535156 71.800781 Z M 107.332031 72.601562 L 110 74.464844 L 107.601562 74.867188 C 104.601562 75.398438 102.667969 77.066406 102.667969 79.132812 C 102.667969 79.933594 102.464844 80.667969 102.132812 80.667969 C 100.933594 80.667969 96.734375 76.535156 96.132812 74.667969 C 95.398438 72.734375 96 71.535156 97.199219 72.265625 C 97.535156 72.464844 99.066406 72.199219 100.734375 71.667969 C 104.667969 70.464844 104.332031 70.398438 107.332031 72.601562 Z M 30 75.800781 C 30.535156 76.265625 33.132812 78.199219 35.734375 80.132812 C 38.332031 82.066406 42.800781 85.464844 45.667969 87.667969 C 53.132812 93.398438 55.132812 94.464844 56.667969 93.464844 C 57.734375 92.800781 58 92.933594 58.332031 94.066406 C 58.601562 94.800781 59.734375 96.464844 60.867188 97.800781 L 62.933594 100.132812 L 61.535156 101.265625 C 60.800781 101.867188 59.667969 103.265625 59.066406 104.398438 C 58.398438 105.800781 57.535156 106.535156 56.535156 106.535156 C 55.667969 106.535156 51.867188 108 48 109.800781 C 44.132812 111.667969 40.535156 113.332031 40 113.535156 C 39.464844 113.800781 38.535156 114.265625 38 114.535156 C 33.265625 117.265625 28.867188 119.332031 27.933594 119.332031 C 27.199219 119.332031 27.265625 117.734375 28.332031 113.332031 C 28.535156 112.398438 28.734375 110.667969 28.734375 109.464844 C 28.800781 107.535156 29.132812 107.066406 31.199219 106.199219 C 34.667969 104.734375 42.667969 102.800781 49.667969 101.734375 C 53 101.199219 54.601562 100.800781 53.332031 100.734375 C 46.800781 100.535156 38.398438 96.933594 31.601562 91.464844 C 28 88.535156 27.734375 88.066406 26.867188 84 C 25.867188 79.398438 25.734375 78.667969 25 75.867188 C 24.132812 72.398438 25.734375 72.332031 30 75.800781 Z M 98.066406 79.535156 L 100 80.867188 L 97.332031 82.066406 C 95.867188 82.734375 94.667969 83.667969 94.667969 84.132812 C 94.601562 86.464844 93.601562 86.800781 90.933594 85.464844 C 87.867188 83.933594 86.332031 82.332031 85.398438 79.867188 C 84.398438 77.199219 84.933594 76.398438 89.066406 75 C 91.066406 74.332031 92.933594 73.464844 93.132812 73.132812 C 93.332031 72.734375 94.132812 73.734375 94.867188 75.265625 C 95.601562 76.867188 97.066406 78.734375 98.066406 79.535156 Z M 114.800781 78.933594 L 117.265625 81.800781 L 114.601562 82.867188 C 113.066406 83.464844 111.535156 84.734375 110.867188 85.867188 C 109.734375 87.867188 109.667969 87.867188 107.933594 86.867188 C 104.132812 84.601562 102.667969 79 105.464844 77.066406 C 106.265625 76.464844 108.199219 76 109.667969 76 C 112.066406 76 112.667969 76.332031 114.800781 78.933594 Z M 79.332031 81.933594 C 80.933594 82.398438 80.933594 82.398438 78.800781 83.265625 C 76.265625 84.332031 74.667969 86.332031 74.667969 88.464844 C 74.667969 89.265625 74.398438 90.066406 74.066406 90.265625 C 73.265625 90.800781 69.265625 89.398438 67.867188 88.132812 C 66.398438 86.867188 66.332031 85.332031 67.734375 85.332031 C 68.332031 85.332031 69.667969 84.734375 70.734375 83.933594 C 71.800781 83.199219 72.667969 82.800781 72.667969 83.132812 C 72.667969 83.398438 73 83.132812 73.398438 82.464844 C 74.066406 81.265625 76.265625 81.066406 79.332031 81.933594 Z M 103.867188 84.332031 C 104.667969 85.601562 105.867188 87 106.601562 87.464844 C 107.867188 88.265625 107.867188 88.332031 105.867188 89.464844 C 104.800781 90.199219 103.535156 91.601562 103.132812 92.667969 C 102.132812 95.332031 101 95.199219 97.933594 92.066406 C 94.265625 88.398438 94.398438 84.667969 98.265625 82.933594 C 101.464844 81.601562 102.398438 81.800781 103.867188 84.332031 Z M 89.734375 86.398438 C 90.933594 87.132812 90.933594 87.199219 89.332031 87.867188 C 86.800781 88.867188 85.265625 90.933594 84.867188 93.933594 C 84.535156 96.398438 84.332031 96.667969 82.601562 96.667969 C 79.332031 96.667969 77.332031 95.464844 76.265625 92.933594 C 74.332031 88.332031 76.265625 85.066406 81.800781 83.667969 C 84.734375 82.933594 85.132812 82.933594 86.734375 84.265625 C 87.734375 85 89.066406 86 89.734375 86.398438 Z M 65.734375 88.066406 C 65.933594 88.464844 67.066406 89.332031 68.199219 90 L 70.265625 91.265625 L 68.601562 91.867188 C 66.332031 92.734375 65.199219 94.332031 64.667969 97.199219 L 64.265625 99.667969 L 62.199219 97.535156 C 59.535156 94.734375 58.800781 92 60.398438 91.132812 C 61.066406 90.734375 62.199219 89.800781 62.933594 88.933594 C 64.535156 87.265625 65.066406 87.066406 65.734375 88.066406 Z M 94.734375 89.800781 C 95.667969 92.265625 97.265625 94 99.332031 94.800781 C 100.933594 95.464844 100.933594 95.464844 99.667969 96.265625 C 96.535156 98.066406 94 101.199219 94 103.265625 C 94 105.667969 94 105.667969 91 104.398438 C 88.066406 103.132812 86 99.800781 86 96.199219 C 86 92.464844 87.066406 90.265625 89.601562 89.066406 C 92.667969 87.535156 93.933594 87.734375 94.734375 89.800781 Z M 110.265625 91.464844 C 110.734375 93.800781 113.066406 96.667969 114.464844 96.667969 C 115.667969 96.667969 115.535156 97.132812 114 99.132812 C 113.265625 100.066406 112.667969 101.398438 112.667969 102.066406 C 112.667969 103.667969 111.734375 103.667969 108.667969 101.933594 C 103.199219 98.867188 102.332031 92.667969 107 90.132812 C 109.132812 88.933594 109.800781 89.199219 110.265625 91.464844 Z M 34.332031 94.933594 C 35.464844 95.734375 37.332031 96.800781 38.535156 97.265625 C 39.667969 97.800781 40.667969 98.398438 40.667969 98.667969 C 40.667969 99 41.535156 99.398438 42.601562 99.667969 C 45.535156 100.265625 44.464844 101.800781 40.800781 102.265625 C 39.066406 102.535156 36.265625 103.199219 34.464844 103.800781 C 32.535156 104.535156 31.132812 104.667969 30.734375 104.265625 C 30.398438 103.933594 29.933594 101 29.734375 97.800781 L 29.265625 91.933594 L 30.800781 92.734375 C 31.667969 93.132812 33.265625 94.132812 34.332031 94.933594 Z M 75.667969 94.199219 C 76.398438 95.332031 77.667969 96.667969 78.535156 97.066406 L 80.066406 97.800781 L 78.199219 99 C 75.667969 100.667969 74.734375 102 74.667969 103.933594 C 74.667969 105.332031 74.464844 105.464844 72.199219 105.066406 C 66.800781 104.132812 63.933594 97.464844 67.535156 94.199219 C 70.734375 91.265625 73.867188 91.265625 75.667969 94.199219 Z M 103.867188 98.800781 C 104.535156 100 106 101.667969 107.199219 102.464844 L 109.398438 103.933594 L 107.398438 104.933594 C 105 106.199219 103.332031 108.464844 103.332031 110.464844 C 103.332031 112.265625 102.667969 112.332031 100 111 C 97.132812 109.535156 95.332031 106.800781 95.332031 104.066406 C 95.332031 101.199219 96.066406 100.132812 99.601562 97.800781 C 102.601562 95.800781 102.398438 95.800781 103.867188 98.800781 Z M 85.332031 99.464844 C 85.332031 100.265625 86.464844 101.933594 87.933594 103.332031 L 90.464844 105.734375 L 88.601562 106.601562 C 87.601562 107.066406 86.332031 108.265625 85.867188 109.398438 C 84.867188 111.601562 83.800781 111.800781 80.132812 110.332031 C 77.667969 109.332031 75.332031 106.464844 75.332031 104.464844 C 75.332031 102.933594 78 99.933594 80.265625 98.933594 C 83.464844 97.535156 85.332031 97.734375 85.332031 99.464844 Z M 65.667969 102.066406 C 65.933594 102.800781 67 104 68.132812 104.667969 L 70.132812 105.867188 L 68.667969 106.667969 C 67.800781 107.132812 66.464844 108.265625 65.667969 109.199219 C 64.265625 110.867188 64.132812 110.867188 63.066406 109.800781 C 62.398438 109.199219 61.332031 108.332031 60.601562 108 C 58.800781 107 59 105.734375 61.398438 103 C 63.734375 100.332031 65.066406 100.066406 65.667969 102.066406 Z M 112.667969 105.667969 C 112.667969 107.332031 114.199219 109.933594 115.398438 110.332031 C 116.464844 110.734375 116.464844 110.933594 114.933594 113.132812 C 114.066406 114.464844 113.332031 116.199219 113.332031 117 C 113.332031 120.398438 107.601562 119.535156 105.332031 115.867188 C 103.734375 113.265625 103.667969 111.265625 104.933594 108.734375 C 106.464844 105.800781 112.667969 103.332031 112.667969 105.667969 Z M 75.332031 107.667969 C 75.734375 108.734375 77.066406 109.867188 78.734375 110.601562 L 81.535156 111.867188 L 79.332031 113 C 78.132812 113.601562 76.464844 114.867188 75.667969 115.734375 L 74.132812 117.398438 L 70.867188 115.199219 C 69.132812 114 67.464844 112.734375 67.265625 112.464844 C 67.066406 112.132812 66.601562 111.867188 66.265625 111.800781 C 64.867188 111.535156 66.800781 109 69.667969 107.199219 C 72.535156 105.464844 74.535156 105.667969 75.332031 107.667969 Z M 95.265625 108.066406 C 95.734375 109.199219 97.132812 110.535156 98.332031 111.132812 L 100.601562 112.199219 L 98.464844 113.601562 C 97.265625 114.398438 96.066406 115.734375 95.667969 116.601562 C 95.066406 117.933594 94.667969 118.066406 92 117.800781 C 85.132812 117 83.933594 109.734375 90.265625 106.933594 C 93.332031 105.601562 94.265625 105.800781 95.265625 108.066406 Z M 85.332031 113.800781 C 85.332031 114.464844 85.800781 115.535156 86.265625 116.132812 C 87.464844 117.800781 91.867188 119.535156 93.667969 119.066406 C 94.867188 118.734375 95.332031 119.066406 96 120.667969 C 96.933594 122.867188 99.867188 125.332031 101.601562 125.332031 C 103.464844 125.332031 102.734375 126.332031 100.332031 127.265625 C 98.667969 127.867188 97.667969 127.867188 96.667969 127.332031 C 95.933594 126.933594 93.199219 125.933594 90.667969 125.066406 C 85.734375 123.464844 85.601562 123.066406 89.332031 120.734375 C 90.800781 119.867188 91.265625 119.332031 90.535156 119.332031 C 89.867188 119.332031 88.398438 120.199219 87.265625 121.199219 L 85.132812 123.132812 L 80.398438 120.734375 C 77.800781 119.464844 75.601562 118.332031 75.464844 118.265625 C 74.734375 117.933594 76.667969 115.667969 78.933594 114.332031 C 82.199219 112.332031 85.332031 112.132812 85.332031 113.800781 Z M 106.066406 118.265625 C 107.265625 119.265625 108.933594 120 110.066406 120 L 112.066406 120 L 110.734375 121.734375 C 109.933594 122.734375 109.332031 123.933594 109.332031 124.398438 C 109.332031 125.800781 104.199219 125.535156 100.867188 124.066406 C 95 121.398438 95.132812 115 101.066406 113.398438 C 102.800781 112.933594 103.066406 113.066406 103.535156 114.734375 C 103.800781 115.734375 104.933594 117.332031 106.066406 118.265625 Z M 120.066406 124 C 122.464844 124 122.667969 124.132812 122 125.265625 C 121.667969 126 121.332031 127.332031 121.332031 128.199219 C 121.332031 129.667969 121 129.867188 117.867188 130.132812 C 113.734375 130.535156 111.800781 129.800781 110.734375 127.535156 C 109.867188 125.601562 110.265625 123.800781 112.199219 121.132812 L 113.464844 119.199219 L 115.464844 121.601562 C 117.132812 123.601562 117.867188 124 120.066406 124 Z M 110.535156 129.667969 C 110.398438 129.800781 108.132812 129.601562 105.398438 129.199219 C 99.867188 128.398438 99.867188 127.464844 105.398438 126.734375 C 108.734375 126.332031 109.066406 126.398438 109.867188 127.867188 C 110.398438 128.734375 110.667969 129.535156 110.535156 129.667969 Z M 110.535156 129.667969 "/>
<path style=" stroke:none;fill-rule:nonzero;fill:rgb(0%,0%,0%);fill-opacity:1;" d="M 144.464844 93 C 144.933594 96.535156 144 98 141.332031 98 C 139.332031 98 137.800781 96.601562 136.601562 93.667969 C 136 92.199219 135.734375 91.933594 135.535156 92.800781 C 135.066406 94.601562 137.199219 98.398438 139.066406 99.265625 C 141.398438 100.332031 142.199219 100.199219 144.265625 98.601562 C 146 97.199219 146.464844 94.867188 145.601562 91.464844 C 144.867188 88.800781 144 89.933594 144.464844 93 Z M 144.464844 93 "/>
<path style=" stroke:none;fill-rule:nonzero;fill:rgb(0%,0%,0%);fill-opacity:1;" d="M 136.265625 110.265625 C 137 110.867188 138.535156 111.332031 139.667969 111.332031 C 140.800781 111.332031 142.332031 110.867188 143.066406 110.265625 C 144.265625 109.265625 144.265625 109.265625 142.867188 109.933594 C 142.066406 110.332031 140.601562 110.667969 139.667969 110.667969 C 138.734375 110.667969 137.265625 110.332031 136.464844 109.933594 C 135.066406 109.265625 135.066406 109.265625 136.265625 110.265625 Z M 136.265625 110.265625 "/>
</g>
</svg>
