<?xml version="1.0" encoding="UTF-8"?>
<svg xmlns="http://www.w3.org/2000/svg" xmlns:xlink="http://www.w3.org/1999/xlink" width="200px" height="200px" viewBox="0 0 200 200" version="1.1">
<g id="surface1">
<path style=" stroke:none;fill-rule:nonzero;fill:rgb(0%,0%,0%);fill-opacity:1;" d="M 93.417969 4.449219 C 78.558594 7.207031 64.679688 17.261719 58.273438 30.070312 C 53.023438 40.570312 51.691406 50 53.738281 62.1875 C 54.539062 66.816406 54.980469 71.351562 54.625 72.332031 C 54.269531 73.308594 49.910156 78.203125 44.929688 83.097656 C 36.386719 91.460938 35.410156 92.792969 30.78125 102.3125 C 26.867188 110.5 21.351562 126.601562 21.351562 130.070312 C 21.351562 131.761719 22.863281 130.515625 24.464844 127.492188 C 26.867188 123.132812 36.742188 112.367188 38.078125 112.8125 C 39.679688 113.34375 39.414062 111.476562 37.8125 110.855469 C 37.101562 110.585938 36.476562 110.765625 36.476562 111.210938 C 36.476562 111.742188 35.855469 112.101562 35.140625 112.101562 C 34.429688 112.101562 33.097656 112.988281 32.027344 114.058594 C 29.449219 116.902344 29.003906 115.480469 30.78125 110.140625 C 31.671875 107.5625 32.296875 105.070312 32.117188 104.539062 C 32.027344 104.09375 32.207031 103.914062 32.5625 104.359375 C 33.183594 104.980469 35.765625 100.179688 35.320312 99.199219 C 35.230469 98.933594 36.03125 98.132812 37.101562 97.421875 C 38.257812 96.621094 38.878906 95.460938 38.613281 94.75 C 38.257812 94.039062 38.523438 93.417969 39.144531 93.417969 C 39.679688 93.417969 39.859375 92.972656 39.5 92.347656 C 39.058594 91.636719 39.324219 91.546875 40.390625 91.902344 C 41.191406 92.261719 41.726562 92.171875 41.460938 91.726562 C 40.925781 90.925781 45.996094 85.941406 48.308594 85.140625 C 49.199219 84.785156 49.734375 84.164062 49.464844 83.71875 C 49.199219 83.273438 50.355469 81.851562 52.046875 80.515625 C 53.824219 79.179688 54.894531 77.757812 54.625 77.222656 C 54.179688 76.511719 54.539062 76.421875 55.515625 76.78125 C 56.761719 77.222656 57.027344 77.046875 56.671875 76.066406 C 56.316406 75.355469 56.496094 74.554688 56.941406 74.289062 C 58.183594 73.488281 58.007812 64.324219 56.851562 63.523438 C 56.226562 63.167969 56.050781 61.742188 56.316406 59.964844 C 56.582031 58.183594 56.40625 56.941406 55.871094 56.761719 C 55.25 56.496094 55.160156 55.871094 55.605469 55.160156 C 56.050781 54.449219 56.496094 51.691406 56.582031 48.933594 C 56.851562 40.746094 60.585938 29.625 62.632812 30.871094 C 63.078125 31.226562 63.257812 30.78125 62.898438 29.980469 C 62.367188 28.648438 66.726562 22.421875 68.773438 21.53125 C 69.128906 21.351562 69.128906 20.730469 68.773438 20.195312 C 68.417969 19.574219 68.859375 19.660156 69.660156 20.375 C 70.996094 21.441406 71.175781 21.441406 70.640625 20.105469 C 70.375 19.304688 70.460938 18.683594 70.820312 18.683594 C 71.261719 18.683594 72.863281 17.527344 74.378906 16.015625 C 75.980469 14.589844 77.492188 13.699219 77.757812 13.96875 C 78.023438 14.324219 78.292969 14.058594 78.292969 13.523438 C 78.292969 12.898438 78.914062 12.457031 79.714844 12.457031 C 80.425781 12.457031 80.78125 12.011719 80.515625 11.566406 C 79.804688 10.5 80.25 10.410156 83.007812 11.476562 C 84.519531 12.101562 85.140625 12.011719 85.140625 11.121094 C 85.140625 10.5 84.519531 10.140625 83.71875 10.410156 C 82.472656 10.765625 82.472656 10.675781 83.628906 9.964844 C 84.339844 9.429688 85.140625 9.164062 85.5 9.429688 C 85.855469 9.609375 88.078125 9.164062 90.390625 8.453125 C 98.308594 6.050781 112.8125 7.117188 117.972656 10.410156 C 119.039062 11.03125 120.460938 11.386719 121.261719 11.121094 C 121.976562 10.765625 122.863281 11.03125 123.308594 11.65625 C 123.664062 12.277344 123.578125 12.542969 123.132812 12.1875 C 122.597656 11.921875 121.707031 12.011719 120.996094 12.542969 C 120.019531 13.078125 120.550781 13.257812 122.507812 12.988281 C 124.289062 12.8125 125.535156 13.167969 125.800781 13.878906 C 126.066406 14.589844 126.867188 15.125 127.578125 15.125 C 128.292969 15.125 129.179688 15.570312 129.539062 16.191406 C 129.980469 16.816406 129.804688 16.902344 128.914062 16.460938 C 127.847656 15.746094 127.847656 15.925781 128.914062 17.261719 C 129.894531 18.417969 130.339844 18.503906 130.871094 17.617188 C 131.40625 16.816406 131.671875 16.726562 131.671875 17.527344 C 131.671875 18.949219 135.855469 23.132812 136.566406 22.421875 C 136.921875 22.0625 137.011719 23.042969 136.832031 24.464844 C 136.566406 26.78125 136.832031 27.136719 138.613281 27.046875 C 139.679688 26.957031 140.390625 27.136719 140.214844 27.402344 C 139.945312 27.578125 140.480469 28.914062 141.460938 30.25 C 142.4375 31.671875 143.238281 33.539062 143.238281 34.519531 C 143.238281 35.5 143.59375 36.476562 144.128906 36.65625 C 145.019531 36.921875 146.085938 43.683594 145.996094 48.042969 C 145.90625 49.289062 146.175781 49.820312 146.621094 49.199219 C 147.152344 48.398438 147.242188 57.117188 146.707031 58.71875 C 146.621094 58.984375 146.621094 59.875 146.707031 60.675781 C 146.796875 61.566406 146.53125 62.277344 146.085938 62.277344 C 145.550781 62.277344 144.929688 62.898438 144.660156 63.699219 C 144.304688 64.589844 144.484375 64.859375 145.195312 64.414062 C 145.90625 63.96875 145.996094 64.589844 145.550781 66.371094 C 144.039062 72.421875 143.949219 73.488281 144.929688 72.0625 C 145.730469 70.90625 145.90625 70.90625 145.90625 72.242188 C 145.90625 75.089844 147.863281 78.203125 149.289062 77.578125 C 150.265625 77.222656 150.535156 77.492188 150.089844 78.648438 C 149.644531 79.625 149.820312 79.980469 150.535156 79.539062 C 151.246094 79.09375 151.335938 79.359375 150.980469 80.425781 C 150.445312 81.671875 150.621094 81.761719 152.402344 80.871094 L 154.359375 79.804688 L 152.402344 81.941406 C 150.535156 83.984375 150.535156 84.164062 152.136719 84.164062 C 153.023438 84.164062 153.558594 83.808594 153.378906 83.453125 C 153.113281 83.097656 153.292969 82.738281 153.648438 82.738281 C 154.09375 82.738281 156.40625 84.875 158.808594 87.367188 C 161.300781 89.945312 162.457031 91.460938 161.476562 90.746094 C 160.5 90.035156 160.941406 90.835938 162.457031 92.527344 C 164.589844 94.839844 165.214844 96.261719 164.945312 98.308594 C 164.769531 100.355469 164.859375 100.621094 165.570312 99.644531 C 166.28125 98.664062 166.371094 99.109375 166.015625 101.421875 C 165.570312 104.359375 165.570312 104.359375 166.636719 102.492188 C 167.261719 101.421875 168.058594 100.710938 168.417969 101.066406 C 168.773438 101.421875 168.503906 102.3125 167.882812 103.023438 C 166.992188 104.179688 167.082031 104.359375 168.238281 103.914062 C 169.304688 103.46875 169.839844 103.914062 170.195312 105.425781 C 170.375 106.761719 170.195312 107.382812 169.660156 107.027344 C 169.128906 106.761719 169.394531 107.382812 170.195312 108.628906 C 172.0625 111.210938 172.0625 111.742188 170.460938 112.367188 C 169.574219 112.722656 169.21875 112.367188 169.484375 111.386719 C 169.574219 110.585938 169.128906 109.253906 168.328125 108.539062 C 167.082031 107.382812 166.992188 107.472656 167.527344 108.71875 C 167.882812 109.699219 167.703125 110.054688 166.992188 109.875 C 166.371094 109.609375 165.125 110.054688 164.234375 110.765625 C 162.722656 111.921875 162.632812 112.8125 163.078125 118.503906 C 163.699219 126.246094 162.367188 142.082031 160.941406 143.859375 C 160.320312 144.574219 159.785156 146.351562 159.699219 147.953125 C 159.429688 151.78125 155.605469 159.964844 152.492188 163.257812 C 151.066406 164.679688 150.089844 166.28125 150.179688 166.636719 C 150.535156 167.703125 147.152344 171.796875 146.53125 171.085938 C 146.175781 170.820312 145.550781 171.621094 145.105469 172.863281 C 144.484375 174.464844 143.773438 175.089844 142.792969 174.734375 C 141.992188 174.378906 141.460938 174.734375 141.460938 175.535156 C 141.460938 176.335938 140.660156 177.222656 139.679688 177.492188 C 138.699219 177.757812 137.898438 178.292969 137.898438 178.648438 C 137.898438 179.003906 135.5 179.269531 132.5625 179.269531 C 128.46875 179.269531 127.492188 179.003906 128.558594 178.292969 C 129.269531 177.757812 129.625 177.046875 129.269531 176.78125 C 129.003906 176.421875 129.09375 176.15625 129.539062 176.066406 C 133.628906 175.800781 135.5 175 137.898438 172.421875 C 139.5 170.820312 141.015625 169.484375 141.28125 169.484375 C 142.082031 169.484375 146.796875 164.144531 146.796875 163.34375 C 146.796875 162.988281 147.597656 161.832031 148.664062 160.765625 C 151.066406 158.273438 154.359375 150.980469 154.714844 147.507812 C 154.804688 147.0625 155.25 146.886719 155.78125 147.0625 C 156.316406 147.152344 156.941406 146.175781 157.027344 144.75 C 157.207031 143.417969 157.828125 139.234375 158.363281 135.410156 C 159.699219 127.136719 158.898438 116.546875 156.496094 108.71875 C 155.605469 105.605469 155.070312 102.667969 155.339844 102.222656 C 155.605469 101.78125 155.25 101.691406 154.539062 101.957031 C 153.824219 102.222656 153.023438 101.78125 152.667969 100.980469 C 152.402344 100.179688 152.492188 99.820312 153.023438 100.089844 C 153.558594 100.355469 153.113281 99.289062 152.136719 97.507812 C 151.066406 95.820312 149.734375 94.21875 149.019531 93.949219 C 148.21875 93.683594 147.953125 92.527344 148.132812 90.570312 C 148.398438 88.878906 148.21875 88.078125 147.863281 88.789062 C 147.242188 89.589844 146.707031 89.414062 145.375 87.988281 C 143.859375 86.121094 143.773438 86.03125 145.285156 86.566406 C 146.261719 86.921875 146.707031 86.832031 146.351562 86.210938 C 145.996094 85.765625 145.105469 85.585938 144.21875 85.855469 C 143.238281 86.121094 142.4375 85.585938 141.902344 84.253906 C 141.371094 83.183594 140.660156 82.296875 140.125 82.207031 C 139.679688 82.207031 138.523438 81.851562 137.632812 81.40625 C 136.476562 80.960938 136.300781 80.425781 137.011719 79.625 C 137.8125 78.648438 137.632812 78.558594 136.210938 78.914062 C 134.785156 79.269531 134.519531 79.003906 134.964844 77.222656 C 135.230469 76.15625 136.03125 74.378906 136.742188 73.398438 C 137.367188 72.421875 137.898438 70.820312 137.898438 69.839844 C 137.898438 68.417969 138.078125 68.328125 138.789062 69.394531 C 139.5 70.460938 139.679688 70.375 139.679688 68.949219 C 139.679688 67.972656 140.214844 66.371094 140.835938 65.390625 C 142.4375 62.988281 142.972656 42.703125 141.460938 42.703125 C 140.570312 42.703125 140.570312 42.4375 141.371094 41.460938 C 142.171875 40.570312 142.171875 39.679688 141.371094 37.898438 C 140.746094 36.65625 139.945312 35.855469 139.589844 36.121094 C 139.144531 36.386719 138.789062 36.210938 138.789062 35.765625 C 138.789062 35.320312 137.632812 33.453125 136.121094 31.582031 C 134.699219 29.714844 133.453125 28.46875 133.453125 28.824219 C 133.453125 29.09375 132.652344 28.558594 131.582031 27.492188 C 130.605469 26.511719 129.179688 25.890625 128.46875 26.15625 C 127.667969 26.421875 127.402344 26.246094 127.667969 25.800781 C 127.9375 25.265625 127.402344 24.910156 126.421875 24.910156 C 125.445312 24.910156 124.378906 24.464844 124.109375 24.019531 C 123.488281 23.042969 109.609375 23.488281 108.628906 24.554688 C 108.363281 24.910156 108.984375 24.910156 110.140625 24.644531 C 111.210938 24.378906 112.101562 24.554688 112.101562 25.089844 C 112.101562 25.621094 110.941406 25.800781 109.519531 25.621094 C 108.007812 25.445312 106.941406 25.445312 107.027344 25.710938 C 107.027344 25.980469 105.695312 27.757812 104.003906 29.539062 C 101.511719 32.207031 100.710938 32.5625 99.554688 31.761719 C 98.753906 31.140625 98.308594 30.160156 98.578125 29.449219 C 98.84375 28.738281 98.578125 28.46875 97.953125 28.824219 C 97.421875 29.179688 96.976562 29.09375 96.976562 28.558594 C 96.976562 28.113281 95.550781 26.867188 93.773438 25.800781 C 91.371094 24.289062 89.058594 23.753906 84.074219 23.664062 C 79.449219 23.488281 77.667969 23.753906 78.023438 24.554688 C 78.203125 25.089844 77.757812 25.800781 76.957031 26.15625 C 76.15625 26.421875 75.800781 26.335938 76.066406 25.800781 C 76.335938 25.265625 76.15625 24.910156 75.621094 24.910156 C 75.089844 24.910156 74.464844 25.535156 74.199219 26.246094 C 73.84375 26.957031 73.21875 27.578125 72.777344 27.578125 C 72.332031 27.578125 71.085938 28.46875 70.105469 29.539062 C 69.128906 30.695312 68.59375 31.140625 68.773438 30.695312 C 69.039062 30.160156 68.148438 29.804688 66.726562 29.804688 C 64.945312 29.714844 64.414062 30.070312 64.769531 30.960938 C 65.035156 31.851562 65.390625 31.941406 65.835938 31.140625 C 66.371094 30.339844 66.636719 30.339844 67.171875 31.050781 C 67.527344 31.671875 67.347656 32.652344 66.816406 33.273438 C 66.28125 33.898438 66.191406 34.785156 66.546875 35.230469 C 66.902344 35.585938 66.371094 35.410156 65.480469 34.699219 C 63.96875 33.453125 63.878906 33.539062 64.414062 35.410156 C 64.769531 36.566406 64.679688 37.367188 64.144531 37.367188 C 62.457031 37.367188 59.429688 49.019531 60.140625 52.9375 C 60.5 54.894531 60.855469 57.917969 60.941406 59.609375 C 61.210938 64.234375 64.324219 71.796875 67.261719 74.910156 C 69.574219 77.3125 69.574219 77.492188 67.792969 76.601562 C 65.746094 75.535156 65.746094 75.535156 67.171875 77.757812 C 68.59375 79.894531 68.59375 79.894531 66.726562 79.449219 C 65.746094 79.179688 64.945312 79.269531 65.035156 79.714844 C 65.214844 80.160156 63.523438 82.296875 61.386719 84.519531 C 59.253906 86.742188 57.828125 87.8125 58.097656 86.921875 C 58.453125 85.941406 58.363281 85.5 57.738281 85.855469 C 57.207031 86.210938 57.027344 87.011719 57.296875 87.632812 C 57.472656 88.257812 56.941406 89.5 55.960938 90.390625 C 55.070312 91.191406 54.269531 92.4375 54.269531 92.972656 C 54.269531 94.394531 51.867188 96.351562 51.421875 95.460938 C 51.15625 95.105469 51.066406 95.195312 51.246094 95.730469 C 51.335938 96.351562 50.445312 98.664062 49.289062 101.066406 C 48.132812 103.46875 47.332031 105.871094 47.597656 106.582031 C 47.777344 107.207031 47.597656 107.472656 47.152344 107.207031 C 46.621094 106.941406 46.261719 107.652344 46.261719 108.898438 C 46.261719 110.140625 45.820312 111.210938 45.285156 111.210938 C 44.574219 111.210938 44.394531 112.277344 44.75 114.234375 C 45.195312 116.816406 45.019531 117.261719 43.859375 116.816406 C 42.882812 116.460938 42.617188 116.636719 43.058594 117.261719 C 43.417969 117.882812 43.773438 122.777344 43.859375 128.113281 C 43.949219 133.539062 44.304688 137.898438 44.660156 137.898438 C 45.019531 137.898438 45.550781 140.125 45.820312 142.792969 C 46.175781 145.460938 46.796875 147.6875 47.152344 147.6875 C 47.507812 147.6875 48.308594 149.554688 48.933594 151.78125 C 49.910156 155.25 49.910156 155.960938 48.84375 156.671875 C 48.042969 157.207031 47.953125 157.472656 48.664062 157.472656 C 49.289062 157.472656 50.179688 156.761719 50.621094 155.871094 C 51.511719 154.449219 51.601562 154.539062 51.691406 156.140625 C 51.78125 157.117188 51.867188 158.453125 51.867188 158.984375 C 51.78125 159.609375 52.222656 159.875 52.667969 159.609375 C 53.203125 159.253906 53.378906 159.875 52.9375 161.121094 C 52.578125 162.542969 52.667969 162.8125 53.203125 162.101562 C 53.824219 161.210938 54.179688 161.210938 55.160156 162.367188 C 56.140625 163.523438 56.140625 163.789062 55.160156 163.523438 C 54.539062 163.34375 53.824219 163.878906 53.648438 164.589844 C 53.378906 165.390625 53.558594 165.570312 54.003906 165.035156 C 54.714844 164.058594 58.628906 163.699219 58.539062 164.5 C 58.273438 166.992188 58.898438 169.039062 59.699219 168.59375 C 60.230469 168.238281 61.832031 169.21875 63.34375 170.640625 C 64.769531 172.152344 66.726562 173.664062 67.703125 173.933594 C 68.59375 174.289062 69.394531 174.910156 69.394531 175.445312 C 69.394531 175.890625 70.019531 176.066406 70.820312 175.800781 C 72.152344 175.265625 72.152344 175.445312 71.085938 176.78125 C 70.375 177.578125 70.285156 178.023438 70.90625 177.667969 C 71.441406 177.3125 72.152344 177.402344 72.507812 177.9375 C 72.777344 178.378906 74.109375 178.824219 75.355469 178.824219 C 79.714844 178.824219 76.957031 179.625 71.351562 179.980469 C 67.617188 180.25 66.101562 180.070312 66.902344 179.539062 C 67.703125 178.914062 67.527344 178.824219 66.191406 179.09375 C 64.679688 179.449219 64.414062 179.09375 64.589844 177.402344 C 64.679688 176.246094 64.414062 175.445312 63.96875 175.800781 C 63.523438 176.066406 63.34375 176.691406 63.613281 177.136719 C 64.769531 178.914062 62.8125 177.757812 60.320312 175.265625 C 58.898438 173.753906 58.007812 172.152344 58.273438 171.707031 C 58.539062 171.175781 58.183594 171.085938 57.472656 171.351562 C 56.671875 171.621094 56.050781 171.441406 56.050781 170.820312 C 56.050781 170.285156 55.605469 170.105469 54.980469 170.460938 C 54.359375 170.90625 54.179688 170.460938 54.449219 169.21875 C 54.804688 167.882812 54.625 167.527344 53.738281 167.882812 C 52.9375 168.148438 52.492188 167.792969 52.492188 166.816406 C 52.492188 166.015625 52.136719 165.570312 51.691406 165.835938 C 51.246094 166.101562 50.445312 165.746094 49.820312 165.035156 C 48.84375 163.878906 48.933594 163.789062 50.355469 164.234375 C 51.691406 164.769531 51.601562 164.414062 49.820312 162.632812 C 46.886719 159.519531 45.195312 157.472656 45.730469 157.472656 C 45.996094 157.472656 45.550781 156.050781 44.839844 154.359375 C 44.21875 152.667969 43.59375 150.089844 43.59375 148.578125 C 43.59375 146.976562 43.238281 145.996094 42.703125 146.351562 C 42.171875 146.621094 41.726562 145.996094 41.636719 144.839844 C 41.546875 143.683594 41.460938 141.992188 41.371094 141.015625 C 41.28125 140.035156 41.015625 138.257812 40.660156 137.011719 C 39.589844 133.539062 39.324219 120.105469 40.300781 120.730469 C 40.746094 120.996094 40.925781 120.460938 40.660156 119.574219 C 40.390625 118.59375 39.945312 116.992188 39.589844 115.835938 C 39.324219 114.769531 38.699219 113.878906 38.257812 113.878906 C 35.855469 113.878906 36.121094 136.65625 38.699219 146.351562 C 42.261719 159.519531 50.800781 172.421875 60.410156 179.09375 C 64.324219 181.851562 64.859375 181.941406 73.84375 182.027344 C 85.320312 182.117188 90.300781 183.808594 91.191406 187.8125 L 91.816406 190.390625 L 100.890625 190.390625 C 114.945312 190.390625 117.792969 189.859375 118.949219 186.742188 C 120.195312 183.453125 123.488281 182.207031 131.40625 181.851562 C 139.5 181.496094 141.816406 180.25 149.554688 172.332031 C 156.226562 165.390625 161.566406 156.050781 164.144531 146.351562 C 166.015625 139.589844 166.902344 120.019531 165.570312 115.300781 C 165.035156 113.34375 164.859375 111.566406 165.125 111.300781 C 165.835938 110.585938 173.132812 118.859375 175.445312 122.953125 C 177.667969 126.957031 179.09375 127.3125 178.292969 123.84375 C 176.867188 117.703125 173.933594 108.453125 171.707031 103.023438 C 167.792969 93.859375 163.257812 87.367188 155.515625 79.804688 L 148.398438 72.953125 L 148.84375 67.347656 C 149.109375 64.324219 149.644531 58.984375 149.910156 55.605469 C 151.867188 34.699219 137.988281 13.613281 117.527344 6.582031 C 110.941406 4.359375 99.464844 3.292969 93.417969 4.449219 Z M 91.101562 27.9375 C 94.75 29.449219 99.464844 35.140625 100.179688 38.878906 C 100.890625 42.4375 102.3125 42.792969 102.3125 39.324219 C 102.3125 37.988281 103.292969 35.410156 104.539062 33.539062 C 110.585938 24.734375 124.820312 24.199219 132.738281 32.652344 C 142.082031 42.527344 141.546875 63.789062 131.671875 75.089844 C 130.070312 76.867188 128.914062 78.46875 129.09375 78.558594 C 139.234375 85.230469 145.640625 92.171875 150 100.980469 C 154.179688 109.699219 155.695312 116.371094 155.695312 126.78125 C 155.695312 148.042969 145.820312 165.480469 129.09375 173.933594 C 120.640625 178.113281 113.167969 179.714844 100.980469 179.714844 C 83.71875 179.714844 72.421875 175.535156 62.1875 165.390625 C 52.136719 155.425781 47.152344 142.261719 47.152344 125.445312 C 47.152344 108.183594 56.050781 90.660156 69.304688 81.671875 C 71.53125 80.160156 73.578125 78.738281 73.753906 78.558594 C 74.019531 78.378906 73.132812 77.136719 71.886719 75.800781 C 64.144531 67.617188 61.210938 51.335938 65.390625 41.101562 C 70.019531 30.160156 81.851562 24.019531 91.101562 27.9375 Z M 118.328125 180.960938 C 118.328125 181.140625 118.59375 181.941406 118.859375 182.652344 C 119.128906 183.363281 118.683594 184.164062 117.792969 184.519531 C 116.546875 184.964844 116.460938 184.875 117.4375 183.71875 C 118.773438 182.117188 117.4375 181.851562 115.835938 183.453125 C 115.125 184.164062 115.035156 184.785156 115.746094 185.675781 C 116.546875 186.566406 116.015625 186.832031 112.898438 186.921875 C 110.765625 187.011719 106.40625 187.101562 103.203125 187.1875 C 100 187.277344 96.886719 186.921875 96.351562 186.566406 C 95.550781 186.03125 95.195312 186.121094 95.195312 186.742188 C 95.195312 188.078125 92.261719 185.230469 91.992188 183.71875 C 91.902344 182.917969 92.792969 182.828125 95.550781 183.363281 C 97.597656 183.71875 99.289062 183.628906 99.464844 183.183594 C 99.644531 182.738281 100.800781 182.5625 101.957031 182.828125 C 108.628906 184.164062 108.984375 184.253906 107.652344 183.273438 C 106.582031 182.472656 106.941406 182.382812 109.074219 182.828125 C 110.765625 183.097656 112.8125 182.828125 114.414062 181.941406 C 116.992188 180.605469 118.328125 180.25 118.328125 180.960938 Z M 118.328125 180.960938 "/>
<path style=" stroke:none;fill-rule:nonzero;fill:rgb(0%,0%,0%);fill-opacity:1;" d="M 81.40625 50.710938 C 80.070312 55.070312 83.273438 57.917969 86.832031 55.605469 C 90.570312 53.113281 89.058594 48.933594 84.429688 48.933594 C 82.738281 48.933594 81.761719 49.464844 81.40625 50.710938 Z M 81.40625 50.710938 "/>
<path style=" stroke:none;fill-rule:nonzero;fill:rgb(0%,0%,0%);fill-opacity:1;" d="M 115.390625 49.554688 C 114.058594 50.890625 114.769531 55.160156 116.546875 56.050781 C 120.019531 57.917969 124.289062 53.203125 121.886719 50.265625 C 120.730469 48.933594 116.460938 48.488281 115.390625 49.554688 Z M 115.390625 49.554688 "/>
<path style=" stroke:none;fill-rule:nonzero;fill:rgb(0%,0%,0%);fill-opacity:1;" d="M 98.132812 53.378906 C 95.285156 54.539062 95.550781 56.496094 98.753906 57.828125 C 102.046875 59.164062 106.761719 57.652344 106.761719 55.160156 C 106.761719 52.757812 102.046875 51.78125 98.132812 53.378906 Z M 98.132812 53.378906 "/>
<path style=" stroke:none;fill-rule:nonzero;fill:rgb(0%,0%,0%);fill-opacity:1;" d="M 138.433594 183.183594 C 138.078125 183.71875 138.34375 183.984375 139.058594 183.628906 C 139.769531 183.363281 140.925781 183.808594 141.726562 184.519531 C 142.527344 185.320312 143.859375 185.941406 144.75 185.941406 C 145.640625 185.941406 147.152344 186.566406 148.042969 187.277344 C 148.933594 187.988281 150.089844 188.34375 150.445312 188.078125 C 151.601562 187.367188 151.421875 188.96875 150.179688 190.214844 C 149.378906 191.015625 149.378906 191.28125 150.445312 191.28125 C 151.511719 191.28125 151.511719 191.460938 150.445312 192.082031 C 148.933594 193.058594 129.894531 193.148438 128.558594 192.261719 C 126.78125 191.015625 120.105469 189.234375 119.484375 189.859375 C 118.328125 191.015625 121.621094 193.148438 126.421875 194.394531 C 133.273438 196.261719 149.820312 196.261719 152.667969 194.394531 C 155.160156 192.792969 155.515625 189.5 153.292969 187.542969 C 149.199219 183.984375 139.679688 181.140625 138.433594 183.183594 Z M 138.433594 183.183594 "/>
<path style=" stroke:none;fill-rule:nonzero;fill:rgb(0%,0%,0%);fill-opacity:1;" d="M 60.941406 184.609375 C 57.027344 186.03125 55.160156 187.988281 55.160156 190.925781 C 55.160156 194.660156 57.207031 195.285156 70.640625 195.285156 C 83.984375 195.285156 88.167969 194.394531 89.945312 191.015625 C 90.835938 189.414062 90.746094 189.324219 88.433594 189.859375 C 87.011719 190.214844 85.585938 191.015625 85.230469 191.546875 C 84.875 192.082031 83.183594 192.527344 81.496094 192.527344 C 79.714844 192.527344 78.292969 192.792969 78.292969 193.058594 C 78.292969 193.949219 59.164062 192.882812 58.273438 191.992188 C 57.652344 191.371094 58.097656 191.28125 59.609375 191.726562 C 61.65625 192.347656 61.65625 192.347656 60.230469 190.835938 C 58.71875 189.414062 58.71875 189.234375 60.140625 187.542969 C 61.03125 186.65625 62.1875 186.03125 62.8125 186.300781 C 63.433594 186.566406 64.058594 185.941406 64.324219 184.964844 C 64.589844 184.074219 64.679688 183.273438 64.679688 183.273438 C 64.589844 183.363281 62.898438 183.898438 60.941406 184.609375 Z M 60.941406 184.609375 "/>
</g>
</svg>
