<?xml version="1.0" encoding="UTF-8"?>
<svg xmlns="http://www.w3.org/2000/svg" xmlns:xlink="http://www.w3.org/1999/xlink" width="200px" height="200px" viewBox="0 0 200 136" version="1.1">
<g id="surface1">
<path style=" stroke:none;fill-rule:nonzero;fill:rgb(0%,0%,0%);fill-opacity:1;" d="M 70.332031 14.933594 C 69.199219 15.398438 67.933594 16.265625 67.398438 16.867188 C 66.867188 17.601562 65.535156 18 63.933594 18 C 61.867188 18 60.800781 18.535156 58.667969 20.398438 C 57.199219 21.734375 56 23.199219 56 23.667969 C 56 24.132812 55.066406 24.867188 54 25.332031 C 51.464844 26.398438 48.933594 29.398438 48.332031 32 C 48.066406 33.132812 47.132812 34.535156 46.199219 35.132812 C 45.265625 35.800781 43.800781 37.800781 43 39.667969 C 41.734375 42.464844 41.535156 44.066406 41.601562 50 C 41.734375 54.734375 41.398438 58 40.734375 60.066406 C 39.867188 62.867188 39.867188 63.464844 40.734375 65.800781 C 41.464844 67.667969 41.601562 68.867188 41.199219 70.066406 C 40.332031 72.199219 40.933594 76.332031 42.398438 78.535156 C 43.066406 79.535156 43.535156 81.265625 43.398438 82.464844 C 43.199219 84.867188 44.933594 89 46.667969 90.199219 C 47.332031 90.667969 48.199219 92.265625 48.601562 93.734375 C 49.332031 96.332031 51.933594 99.398438 54.132812 100.199219 C 54.734375 100.398438 56.066406 102.132812 57 103.933594 C 58.332031 106.601562 58.667969 108.265625 58.667969 112 C 58.667969 118.332031 59.265625 119.332031 63 119.332031 C 66.398438 119.332031 68 117.800781 69.332031 113.066406 C 70 110.535156 70.398438 110.066406 72.265625 109.800781 C 73.398438 109.667969 74.800781 109.332031 75.332031 109.132812 C 77.398438 108.199219 78.132812 109.734375 78.601562 115.398438 L 79 121 L 81.535156 121.601562 C 84.800781 122.398438 87.199219 120.734375 88.734375 116.601562 C 89.800781 113.800781 90 113.667969 92.734375 113.464844 C 94.332031 113.332031 96 112.933594 96.464844 112.601562 C 97 112.132812 98.132812 112.199219 99.867188 112.734375 C 101.933594 113.332031 103.066406 113.332031 105.066406 112.601562 C 106.535156 112.132812 109.464844 111.667969 111.667969 111.667969 C 113.867188 111.601562 116.332031 111.332031 117.199219 111.066406 C 118.601562 110.535156 118.667969 110.667969 118.667969 114.601562 C 118.667969 120.132812 119.398438 121.332031 122.667969 121.332031 C 125.066406 121.332031 125.398438 121.066406 126.601562 118.800781 C 127.867188 116.332031 129.464844 111.132812 129.535156 109.464844 C 129.535156 109.066406 130.398438 108.667969 131.398438 108.667969 C 135 108.667969 135.332031 109.132812 135.332031 114 C 135.332031 119 136.398438 120.667969 139.535156 120.667969 C 142.066406 120.667969 143.867188 117.667969 145.398438 110.867188 C 147 103.933594 148.535156 100.601562 150.734375 99.535156 C 151.601562 99.132812 153.199219 97.867188 154.265625 96.734375 C 156 94.933594 156.265625 94.132812 156.398438 90.464844 C 156.464844 88 157 85.265625 157.667969 84 C 158.464844 82.464844 158.667969 81 158.398438 79.332031 C 158.132812 77.667969 158.332031 76.132812 159 74.933594 C 160.867188 71.332031 159.933594 65.734375 157.066406 63.398438 C 156.398438 62.867188 156 61.464844 156 59.933594 C 156 58.066406 155.464844 56.800781 154 55.132812 C 152.933594 53.867188 152 52.132812 152 51.332031 C 152 47.734375 147.464844 42.667969 144.199219 42.667969 C 143.464844 42.667969 142.066406 41.734375 141 40.667969 C 139.132812 38.734375 134.601562 36.867188 133.398438 37.601562 C 133.066406 37.800781 132.332031 37.398438 131.667969 36.667969 C 131 35.933594 129.199219 34.867188 127.601562 34.265625 C 125.132812 33.332031 124.398438 33.265625 122.667969 34 C 121.066406 34.667969 120.199219 34.667969 118.933594 34.066406 C 116.867188 33.132812 113 33.132812 111.398438 34 C 110.332031 34.535156 110.132812 34.265625 109.734375 31.867188 C 109.265625 29 105.734375 24.667969 103.800781 24.667969 C 103.265625 24.667969 102.199219 23.667969 101.464844 22.398438 C 99.601562 19.199219 96.933594 17.667969 93.332031 17.601562 C 91.667969 17.601562 89.601562 17.132812 88.667969 16.535156 C 86.332031 15.066406 83.199219 14.464844 81.265625 15.199219 C 80.199219 15.601562 79 15.535156 77.667969 14.933594 C 75.132812 13.800781 72.867188 13.800781 70.332031 14.933594 Z M 77.265625 17.066406 C 78.535156 18 79.199219 18.066406 81.332031 17.398438 C 84.066406 16.601562 85.332031 16.867188 88.066406 18.734375 C 89.265625 19.601562 90.464844 19.867188 92.199219 19.535156 C 95.199219 19.066406 98.265625 20.800781 99.667969 23.800781 C 100.265625 25.066406 101.398438 26.132812 102.265625 26.398438 C 104.535156 26.933594 107.265625 30 107.734375 32.601562 L 108.199219 34.800781 L 106.066406 33.734375 C 104.933594 33.132812 103.601562 32.667969 103.132812 32.734375 C 102.734375 32.800781 101.535156 32.667969 100.464844 32.398438 C 99.464844 32.066406 97.265625 32.066406 95.601562 32.332031 C 93.265625 32.667969 92.398438 33.132812 91.867188 34.398438 C 91.132812 36 88.265625 38 86.667969 38 C 86.199219 38 84.933594 37 83.800781 35.800781 C 82.398438 34.332031 81.734375 33.933594 81.464844 34.601562 C 80.867188 36.398438 78.601562 38 76.667969 38 C 75.132812 38 74.464844 37.535156 73.601562 35.933594 L 72.535156 33.867188 L 70.667969 35.933594 C 69.601562 37.066406 68.332031 38 67.867188 38 C 66.332031 38 64 36 64 34.667969 C 64 32 61.265625 31.601562 53.199219 33.066406 C 51 33.398438 50.667969 33.332031 50.667969 32.199219 C 50.667969 30.464844 53.464844 27.464844 55.535156 27 C 56.535156 26.734375 57.535156 25.734375 58 24.667969 C 59.199219 21.734375 61 20.535156 64.667969 20.132812 C 66.464844 20 68 19.535156 68 19.265625 C 68 18.265625 72.199219 16 74 16 C 74.933594 16 76.398438 16.464844 77.265625 17.066406 Z M 60.933594 34.398438 C 61.535156 34.601562 62 35.265625 62 35.800781 C 62 36.265625 62.734375 37.464844 63.667969 38.332031 C 65.601562 40.332031 68.933594 40.535156 70.800781 38.867188 C 71.667969 38.132812 72.265625 37.933594 72.535156 38.398438 C 73.667969 40.132812 76 40.734375 78.667969 40 C 80.066406 39.601562 81.464844 39 81.734375 38.601562 C 82 38.199219 82.667969 38.265625 83.734375 38.933594 C 86.535156 40.800781 89.199219 40.265625 92.132812 37.332031 C 95.265625 34.265625 98.800781 33.265625 101 34.933594 C 102.601562 36.132812 102 36.867188 98.535156 38 C 97.132812 38.398438 96 38.867188 96 39 C 96 39.066406 96.464844 40.464844 97 42 C 98.332031 45.867188 98.667969 47.535156 99.132812 53.066406 C 99.464844 57.667969 99.398438 57.867188 97.398438 60.132812 C 94.464844 63.535156 88.332031 65 77.667969 65 C 69.464844 65 63.667969 64 60.734375 62.066406 C 57.199219 59.800781 56.398438 52.800781 58.601562 44.132812 L 59.867188 39.265625 L 57.601562 38.332031 C 53.132812 36.464844 56.332031 32.667969 60.933594 34.398438 Z M 52.933594 37 C 53.199219 37.933594 54.265625 39.132812 55.398438 39.667969 C 56.867188 40.464844 57.332031 41.066406 57 41.867188 C 56.734375 42.464844 56.265625 44.667969 55.867188 46.667969 C 54.199219 55.601562 54.464844 55 52.066406 55.199219 C 47.464844 55.667969 44.867188 53.265625 43.667969 47.464844 L 43.199219 45.265625 L 45.464844 46.667969 C 46.667969 47.398438 48.199219 48 48.800781 48 C 50.132812 48 52.667969 44.933594 52.667969 43.265625 C 52.667969 41.398438 50.867188 41.734375 50.398438 43.667969 C 49.867188 45.734375 47.535156 45.933594 45.265625 44.066406 C 43.867188 42.933594 43.800781 42.667969 44.601562 40.734375 C 46.535156 36.132812 52.066406 33.601562 52.933594 37 Z M 107.199219 37 C 108.265625 37.867188 109.535156 39.601562 110.066406 40.734375 C 110.867188 42.667969 110.800781 42.933594 109.398438 44.066406 C 107.132812 45.933594 104.933594 45.734375 104.398438 43.667969 C 103.800781 41.332031 101.867188 41.398438 102.265625 43.734375 C 102.667969 45.867188 104.464844 48 105.933594 48 C 106.535156 48 108 47.398438 109.199219 46.667969 L 111.464844 45.265625 L 111 47.464844 C 109.800781 53.066406 107.535156 55.332031 103.199219 55.332031 C 101.667969 55.332031 101.265625 55.066406 101.601562 54.332031 C 101.933594 53.464844 100.535156 46.734375 99.066406 41.667969 C 98.734375 40.601562 99.132812 40.132812 100.800781 39.332031 C 102 38.800781 103.265625 37.667969 103.667969 36.800781 C 104.464844 34.933594 104.800781 34.933594 107.199219 37 Z M 118.601562 36.398438 C 119.800781 37.265625 120.464844 37.332031 121.734375 36.734375 C 124.601562 35.464844 127.132812 35.867188 129.535156 38 C 131.066406 39.265625 132.535156 40 133.867188 40 C 136.601562 40 139.066406 41.199219 140.332031 43.132812 C 141 44.132812 142 44.667969 143.199219 44.667969 C 146.667969 44.667969 150 48.464844 150 52.398438 C 150 53.464844 150.667969 54.667969 151.667969 55.464844 C 153.464844 56.867188 154.734375 60.535156 154.199219 62.667969 C 154 63.398438 154.199219 64 154.601562 64 C 155.867188 64 158 68.199219 158 70.734375 C 158 72.132812 157.464844 73.867188 156.667969 74.867188 C 155.535156 76.265625 155.464844 76.867188 156 78.398438 C 156.867188 80.535156 156.332031 83.535156 154.933594 84.667969 C 154.265625 85.265625 154.132812 86.398438 154.398438 88.933594 C 154.867188 93.199219 153.199219 96.132812 149.734375 97.398438 C 148.398438 97.867188 147.132812 98.867188 146.933594 99.601562 C 146.265625 101.867188 143.933594 103.933594 141.601562 104.398438 C 140.398438 104.601562 139.265625 105.265625 139.066406 105.800781 C 138.734375 106.601562 137.601562 106.734375 133.398438 106.601562 C 129.199219 106.398438 127.800781 106.601562 126.867188 107.464844 C 125.066406 109.066406 122.332031 109.535156 119.734375 108.667969 C 117.734375 108.066406 117.132812 108.066406 115.867188 108.933594 C 114.132812 110.132812 111.199219 110.332031 109.265625 109.332031 C 108.332031 108.800781 107.601562 108.867188 106.535156 109.667969 C 104.867188 110.734375 100.199219 111 98.734375 110.066406 C 98.066406 109.667969 97.066406 109.800781 95.933594 110.398438 C 94.867188 110.933594 93.265625 111.332031 92.332031 111.332031 C 90.398438 111.332031 86.667969 109.601562 86.667969 108.734375 C 86.667969 108.398438 85.265625 108.332031 83.601562 108.535156 C 81.132812 108.800781 80.199219 108.535156 78.535156 107.332031 C 76.535156 105.867188 76.332031 105.800781 74.464844 106.867188 C 72.066406 108.265625 68.464844 108.332031 67.332031 107 C 66.867188 106.464844 65.535156 106 64.332031 106 C 61.601562 106 59 103.933594 57.933594 101.066406 C 57.398438 99.535156 56.464844 98.601562 54.867188 98.066406 C 52.601562 97.199219 50.667969 94.464844 50.667969 92 C 50.667969 91.265625 49.464844 89.464844 47.933594 88 C 45.398438 85.601562 45.199219 85.199219 45.464844 82.535156 C 45.667969 80.332031 45.398438 79.132812 44.199219 77.398438 C 42.464844 74.800781 42.199219 71.601562 43.667969 69.535156 C 44.535156 68.332031 44.535156 68.066406 43.667969 67.332031 C 42.066406 66 41.734375 62.332031 42.933594 59.933594 C 43.667969 58.535156 43.867188 57 43.601562 55.535156 L 43.199219 53.265625 L 45.199219 55.332031 C 47 57.132812 47.667969 57.332031 51.132812 57.332031 L 55 57.332031 L 56.332031 60.132812 C 58 63.535156 61.933594 65.800781 67.199219 66.464844 C 70.601562 66.867188 71.398438 67.667969 70 69.066406 C 68.867188 70.199219 67.933594 77.667969 68.601562 79.535156 C 69.535156 82 73 82.867188 80.199219 82.535156 C 85.535156 82.265625 86.332031 82.066406 87.535156 80.601562 C 88.601562 79.265625 88.734375 78.398438 88.398438 75.199219 C 88.199219 73.066406 87.601562 70.332031 87.066406 69.066406 L 86.132812 66.800781 L 88.867188 66.398438 C 92.265625 65.867188 97.933594 63.332031 99.398438 61.601562 C 100.066406 60.933594 100.667969 59.734375 100.800781 59 C 101 57.933594 101.667969 57.601562 104.601562 57.332031 C 107.535156 57 108.464844 56.601562 110.066406 54.867188 C 113.464844 51 114.265625 44.464844 111.933594 39.398438 C 110.933594 37.066406 110.800781 36.332031 111.464844 35.867188 C 112.933594 35 116.933594 35.265625 118.601562 36.398438 Z M 84.933594 69.132812 C 85.398438 70.199219 86.066406 72.265625 86.332031 73.867188 L 86.800781 76.734375 L 84.199219 76.199219 C 80.535156 75.398438 72.734375 75.800781 71.535156 76.800781 C 70.601562 77.535156 70.535156 77.332031 70.867188 75 C 71.199219 72.199219 71.398438 71.265625 72.265625 68.800781 C 72.734375 67.464844 73.132812 67.332031 78.332031 67.332031 C 83.800781 67.332031 84 67.398438 84.933594 69.132812 Z M 75.332031 79.332031 C 77.132812 81.132812 77.066406 81.265625 74 80.464844 C 71.132812 79.667969 70.601562 78.933594 72.535156 78.464844 C 73.132812 78.265625 73.734375 78.132812 73.867188 78.066406 C 73.933594 78.066406 74.601562 78.601562 75.332031 79.332031 Z M 85 78.667969 C 86.265625 79.132812 86.199219 79.265625 84.464844 79.933594 C 83.398438 80.332031 81.933594 80.667969 81.199219 80.667969 C 79.933594 80.667969 79.933594 80.601562 81.398438 79.332031 C 83.199219 77.867188 83.132812 77.867188 85 78.667969 Z M 143.601562 109.933594 C 142.667969 114.132812 140.734375 118.667969 139.933594 118.667969 C 137.800781 118.667969 137.332031 117.734375 137.332031 113.734375 C 137.398438 109.667969 137.398438 109.667969 140.199219 107.867188 C 144.398438 105.132812 144.734375 105.332031 143.601562 109.933594 Z M 64.066406 108.265625 C 65.667969 108.535156 68 110 68 110.800781 C 68 111.265625 67.398438 112.867188 66.601562 114.464844 C 65.464844 116.867188 64.933594 117.332031 63.265625 117.332031 C 61 117.332031 60.867188 117.066406 60.535156 111.535156 C 60.265625 107.601562 60.332031 107.398438 61.667969 107.734375 C 62.464844 107.933594 63.535156 108.132812 64.066406 108.265625 Z M 126.199219 114.667969 C 124.933594 118.398438 123.535156 119.800781 121.734375 119.132812 C 120.933594 118.800781 120.667969 117.800781 120.667969 115 L 120.667969 111.332031 L 122.867188 111.332031 C 124 111.332031 125.464844 111 126 110.667969 C 127.464844 109.734375 127.535156 110.734375 126.199219 114.667969 Z M 86.867188 111.867188 C 87.800781 112.667969 87.800781 113.066406 86.933594 115.464844 C 85.667969 119.066406 84.867188 120 82.867188 120 C 81 120 80.867188 119.601562 80.535156 114.667969 L 80.265625 110.933594 L 83 111 C 84.535156 111 86.265625 111.398438 86.867188 111.867188 Z M 86.867188 111.867188 "/>
<path style=" stroke:none;fill-rule:nonzero;fill:rgb(0%,0%,0%);fill-opacity:1;" d="M 63.332031 44.667969 C 62.933594 45.398438 62.667969 47.132812 62.800781 48.464844 C 63.132812 52.734375 66.800781 53.199219 68.199219 49.132812 C 69.464844 45.332031 65.132812 41.332031 63.332031 44.667969 Z M 63.332031 44.667969 "/>
<path style=" stroke:none;fill-rule:nonzero;fill:rgb(0%,0%,0%);fill-opacity:1;" d="M 87.734375 44.800781 C 85.535156 47.933594 87 52.332031 90.066406 51.867188 C 92.332031 51.601562 93.332031 47.535156 91.734375 45.066406 C 90.398438 42.933594 89.066406 42.867188 87.734375 44.800781 Z M 87.734375 44.800781 "/>
<path style=" stroke:none;fill-rule:nonzero;fill:rgb(0%,0%,0%);fill-opacity:1;" d="M 79.734375 53.867188 L 77.867188 55.667969 L 76.867188 54.132812 C 75.734375 52.535156 74 52.132812 74 53.535156 C 74 54.066406 74.601562 55 75.265625 55.601562 C 76.800781 57 77.535156 60.667969 76.199219 60.667969 C 75.734375 60.667969 74.933594 59.933594 74.535156 59 C 73.667969 57.066406 72.800781 56.867188 72.199219 58.398438 C 72 59.066406 72.464844 60.132812 73.535156 61.199219 C 75.933594 63.601562 80.535156 63.667969 83 61.332031 C 84.734375 59.667969 85.265625 57.332031 83.800781 57.332031 C 83.332031 57.332031 82.667969 58 82.332031 58.800781 C 81.933594 59.667969 81.132812 60.398438 80.535156 60.535156 C 78.601562 60.867188 79 57.464844 81 55.867188 C 82.667969 54.601562 83.132812 53.066406 82.132812 52.398438 C 81.800781 52.199219 80.734375 52.867188 79.734375 53.867188 Z M 79.734375 53.867188 "/>
</g>
</svg>
