<?xml version="1.0" encoding="UTF-8"?>
<svg xmlns="http://www.w3.org/2000/svg" xmlns:xlink="http://www.w3.org/1999/xlink" width="200px" height="200px" viewBox="0 0 200 178" version="1.1">
<g id="surface1">
<path style=" stroke:none;fill-rule:nonzero;fill:rgb(0%,0%,0%);fill-opacity:1;" d="M 67.132812 5.0625 C 62.066406 6.261719 56.933594 8.792969 53.667969 11.523438 C 47.132812 17.121094 45.800781 27.3125 51.398438 28.445312 C 52.867188 28.710938 53.332031 29.179688 53.332031 30.378906 C 53.332031 32.441406 55.667969 34.773438 57.535156 34.507812 C 59.601562 34.242188 59.867188 32.109375 57.867188 31.84375 C 55.535156 31.507812 55.601562 29.179688 57.933594 26.445312 C 61.464844 22.449219 60.199219 20.851562 55.933594 23.980469 C 52.667969 26.3125 51.667969 26.445312 50.667969 24.648438 C 49.535156 22.582031 50.933594 18.585938 53.933594 15.1875 C 60.535156 7.726562 74.800781 4.664062 85.667969 8.394531 C 90 9.925781 94.933594 14.789062 96.066406 18.71875 C 96.933594 21.71875 97.867188 22.847656 98.800781 22.25 C 100.601562 21.117188 97.464844 13.523438 93.933594 10.191406 C 88.199219 4.929688 76.667969 2.730469 67.132812 5.0625 Z M 67.132812 5.0625 "/>
<path style=" stroke:none;fill-rule:nonzero;fill:rgb(0%,0%,0%);fill-opacity:1;" d="M 66 11.859375 C 60.066406 14.054688 53.667969 17.988281 55.933594 17.988281 C 56.265625 17.988281 56.734375 17.71875 56.933594 17.386719 C 57.667969 16.253906 65.398438 12.589844 67.265625 12.457031 C 68.332031 12.390625 69.066406 12.125 68.933594 11.859375 C 68.800781 11.65625 69.199219 11.257812 69.800781 11.125 C 70.601562 10.925781 70.667969 10.792969 70 10.792969 C 69.464844 10.792969 67.667969 11.257812 66 11.859375 Z M 66 11.859375 "/>
<path style=" stroke:none;fill-rule:nonzero;fill:rgb(0%,0%,0%);fill-opacity:1;" d="M 111.132812 17.386719 C 106.535156 18.453125 102 20.71875 102 21.984375 C 102 23.914062 102.667969 23.914062 106.332031 21.984375 C 113.265625 18.320312 121.535156 18.851562 129.265625 23.515625 C 135.867188 27.511719 140.667969 34.707031 140.667969 40.835938 C 140.667969 44.832031 139.734375 46.632812 137.734375 46.632812 C 135.933594 46.632812 134.933594 45.632812 134.332031 43.167969 C 133.734375 40.902344 132.601562 39.902344 131.398438 40.570312 C 130.734375 41.035156 130.734375 41.636719 131.398438 43.902344 C 132.535156 47.832031 131.464844 50.230469 128.734375 49.628906 C 127.667969 49.429688 126.601562 49.496094 126.398438 49.894531 C 125.800781 50.828125 127.867188 52.628906 129.535156 52.628906 C 131.464844 52.628906 134 50.828125 134 49.496094 C 134 48.761719 134.332031 48.628906 135.199219 49.03125 C 137.265625 49.894531 139.464844 49.429688 141.265625 47.699219 C 142.867188 46.097656 143 45.433594 143 40.769531 C 143 36.371094 142.734375 35.171875 141.066406 32.175781 C 137.132812 25.046875 129.867188 19.519531 121.933594 17.652344 C 117.199219 16.585938 114.867188 16.519531 111.132812 17.386719 Z M 111.132812 17.386719 "/>
<path style=" stroke:none;fill-rule:nonzero;fill:rgb(0%,0%,0%);fill-opacity:1;" d="M 123.332031 24.847656 C 123.332031 24.980469 124.800781 26.046875 126.535156 27.179688 C 129.734375 29.246094 135 34.042969 136.535156 36.371094 C 137 37.105469 136.933594 36.773438 136.398438 35.640625 C 135.265625 33.242188 129.066406 27.246094 126.132812 25.714844 C 124.132812 24.648438 123.332031 24.449219 123.332031 24.847656 Z M 123.332031 24.847656 "/>
<path style=" stroke:none;fill-rule:nonzero;fill:rgb(0%,0%,0%);fill-opacity:1;" d="M 78.667969 27.445312 C 77.265625 27.777344 74.332031 29.710938 71.734375 31.976562 C 66.601562 36.371094 64.464844 37.238281 62.601562 35.574219 C 61.398438 34.507812 59.332031 34.707031 59.332031 35.90625 C 59.332031 37.105469 62.199219 39.304688 63.800781 39.304688 C 66.398438 39.304688 69.464844 37.707031 73.199219 34.308594 C 76.800781 31.042969 80.601562 29.246094 82.734375 29.777344 C 83.332031 29.976562 84.601562 30.84375 85.464844 31.777344 C 86.800781 33.242188 87 34.042969 87 38.835938 C 87 41.835938 86.734375 45.433594 86.398438 46.832031 C 85.867188 49.164062 85.933594 49.429688 87.066406 49.164062 C 90 48.628906 91.066406 37.371094 88.734375 32.175781 C 86.933594 28.246094 83 26.378906 78.667969 27.445312 Z M 78.667969 27.445312 "/>
<path style=" stroke:none;fill-rule:nonzero;fill:rgb(0%,0%,0%);fill-opacity:1;" d="M 101.933594 36.640625 C 97.535156 38.972656 92.667969 45.566406 92.667969 49.230469 C 92.667969 50.894531 94.601562 51.628906 95.066406 50.097656 C 96.734375 45.234375 99.066406 41.703125 101.867188 39.902344 C 108.867188 35.507812 116.332031 39.4375 117.601562 48.296875 C 118.066406 51.429688 120.066406 53.960938 122 53.960938 C 124.132812 53.960938 125.332031 53.226562 125.332031 51.828125 C 125.332031 50.695312 125 50.5625 123.332031 50.960938 C 121.933594 51.292969 121.265625 51.160156 121.066406 50.496094 C 120.867188 50.027344 120.265625 47.898438 119.667969 45.832031 C 117.265625 37.105469 109.066406 32.84375 101.933594 36.640625 Z M 101.933594 36.640625 "/>
<path style=" stroke:none;fill-rule:nonzero;fill:rgb(0%,0%,0%);fill-opacity:1;" d="M 67 55.691406 C 54.398438 57.625 37.332031 63.351562 37.332031 65.683594 C 37.332031 67.347656 38.535156 67.28125 42.464844 65.351562 C 55.734375 58.824219 75.800781 56.222656 89.667969 59.289062 C 103.398438 62.285156 111.734375 66.484375 120.535156 74.878906 C 128.734375 82.738281 132.265625 89.066406 136.933594 104.457031 C 140.601562 116.511719 143.535156 122.707031 147.601562 126.839844 C 152 131.433594 155.066406 130.902344 155.601562 125.507812 C 155.734375 124.105469 156.332031 121.574219 157 119.910156 C 157.601562 118.246094 158.265625 116.378906 158.464844 115.714844 C 158.667969 115.113281 159.066406 114.582031 159.398438 114.582031 C 159.734375 114.582031 160 114.113281 160 113.515625 C 160 112.25 164.464844 105.921875 165.332031 105.921875 C 165.667969 105.921875 166.535156 104.988281 167.332031 103.921875 C 168.601562 102.125 168.667969 101.921875 167.601562 101.921875 C 166.933594 101.921875 164.867188 103.523438 163 105.453125 C 159 109.519531 155.535156 117.046875 154.332031 123.90625 C 153.667969 127.902344 153.464844 128.238281 151.800781 128.4375 C 150.332031 128.636719 150 128.371094 150 127.238281 C 150 126.4375 149.132812 124.707031 148.066406 123.375 C 145 119.578125 143 115.046875 140 105.253906 C 136.265625 92.863281 135.066406 89.800781 131.867188 84.535156 C 124.132812 71.480469 110.535156 61.753906 94.332031 57.558594 C 89.132812 56.222656 85.667969 55.824219 78.332031 55.625 C 73.199219 55.492188 68.132812 55.558594 67 55.691406 Z M 67 55.691406 "/>
<path style=" stroke:none;fill-rule:nonzero;fill:rgb(0%,0%,0%);fill-opacity:1;" d="M 71.332031 59.957031 C 50 62.554688 28.535156 74.410156 18.867188 89.066406 C 15.332031 94.460938 12.132812 102.921875 11.132812 109.382812 C 10.265625 115.378906 11.199219 125.90625 13.066406 131.769531 C 14.066406 134.898438 14.332031 135.164062 15.199219 134.300781 C 16.066406 133.433594 16.066406 133.101562 15.332031 132.234375 C 14.066406 130.703125 13.199219 125.507812 12.867188 116.578125 C 12.535156 108.117188 12.867188 106.519531 16.398438 97.925781 C 19.601562 90.265625 29.199219 78.941406 35.199219 75.742188 C 36.535156 75.078125 38.132812 74.078125 38.667969 73.542969 C 39.601562 72.746094 49.867188 67.28125 50.667969 67.148438 C 51 67.082031 53.535156 66.152344 55.667969 65.21875 C 57.601562 64.351562 71.398438 61.421875 75.464844 60.953125 C 82.066406 60.15625 82.800781 60.023438 83.199219 59.6875 C 83.667969 59.15625 76.667969 59.355469 71.332031 59.957031 Z M 71.332031 59.957031 "/>
<path style=" stroke:none;fill-rule:nonzero;fill:rgb(0%,0%,0%);fill-opacity:1;" d="M 29.933594 69.414062 C 20.933594 75.875 14.398438 83.136719 10.332031 91.332031 C -1.667969 114.980469 6.800781 143.824219 29 155.351562 C 36.535156 159.214844 45.199219 162.078125 55.601562 164.210938 C 69.734375 167.007812 85.734375 168.140625 87.265625 166.34375 C 88.398438 164.875 87.464844 164.542969 82.265625 164.542969 C 64.867188 164.542969 43.464844 159.746094 30.332031 153.019531 C 21.734375 148.554688 13.867188 139.828125 10.601562 131.300781 C 8.867188 126.773438 7.398438 118.84375 7.332031 114.179688 C 7.332031 109.519531 9.132812 100.457031 10.933594 95.929688 C 14.332031 87.601562 21.464844 78.941406 30.199219 72.414062 C 34.332031 69.347656 35.265625 68.015625 33.601562 67.484375 C 33.265625 67.347656 31.601562 68.28125 29.933594 69.414062 Z M 29.933594 69.414062 "/>
<path style=" stroke:none;fill-rule:nonzero;fill:rgb(0%,0%,0%);fill-opacity:1;" d="M 161.199219 98.527344 C 155.734375 101.992188 152.066406 108.984375 150.800781 118.246094 C 150.132812 123.175781 150.199219 123.90625 151.601562 123.90625 C 152.132812 123.90625 152.734375 121.976562 153.265625 118.3125 C 154.398438 110.917969 156.867188 105.652344 161.066406 102.058594 C 163.734375 99.660156 164.667969 99.257812 166.601562 99.390625 C 168.800781 99.59375 169 99.792969 170.132812 103.257812 C 172.199219 109.917969 171.332031 115.847656 167.332031 122.175781 C 165.066406 125.707031 165.066406 127.769531 167.265625 126.570312 C 168 126.238281 169.667969 123.707031 171 120.976562 C 174.066406 114.78125 174.667969 109.71875 173 103.589844 C 171.066406 96.460938 167.132812 94.796875 161.199219 98.527344 Z M 161.199219 98.527344 "/>
<path style=" stroke:none;fill-rule:nonzero;fill:rgb(0%,0%,0%);fill-opacity:1;" d="M 20 102.125 C 16.066406 104.121094 16.132812 109.652344 20.132812 111.316406 C 21.867188 111.984375 22.464844 111.984375 23.933594 111.183594 C 28.132812 108.851562 28.332031 103.921875 24.332031 102.191406 C 21.601562 101.058594 22.066406 101.058594 20 102.125 Z M 24.734375 105.722656 C 25.199219 106.988281 24.933594 107.453125 23.601562 108.386719 C 22.332031 109.183594 21.601562 109.316406 20.734375 108.785156 C 19.199219 107.785156 19 105.789062 20.398438 104.789062 C 22.132812 103.523438 24.066406 103.988281 24.734375 105.722656 Z M 24.734375 105.722656 "/>
<path style=" stroke:none;fill-rule:nonzero;fill:rgb(0%,0%,0%);fill-opacity:1;" d="M 84.066406 110.316406 C 81.199219 113.914062 83.265625 118.578125 87.667969 118.578125 C 90.601562 118.578125 93.601562 115.246094 93 112.648438 C 92.066406 108.519531 86.601562 107.121094 84.066406 110.316406 Z M 89.667969 111.515625 C 90.800781 112.316406 90.867188 112.714844 90.132812 114.179688 C 89.535156 115.445312 88.867188 115.914062 87.398438 115.914062 C 84.933594 115.914062 84.199219 113.714844 86.066406 111.847656 C 87.601562 110.316406 88 110.316406 89.667969 111.515625 Z M 89.667969 111.515625 "/>
<path style=" stroke:none;fill-rule:nonzero;fill:rgb(0%,0%,0%);fill-opacity:1;" d="M 26.933594 116.179688 C 26.734375 116.710938 27.066406 117.84375 27.601562 118.710938 C 28.734375 120.441406 28.464844 121.242188 26.667969 121.242188 C 24.601562 121.242188 19.398438 129.835938 19.332031 133.367188 C 19.332031 133.964844 19 134.699219 18.535156 134.964844 C 18.066406 135.230469 18 135.164062 18.265625 134.699219 C 18.601562 134.167969 18.332031 134.03125 17.667969 134.300781 C 16.464844 134.765625 16.734375 137.097656 18.535156 141.160156 L 19.601562 143.558594 L 20.066406 138.828125 C 20.601562 133.367188 23.265625 127.039062 26.867188 122.90625 L 29.199219 120.242188 L 32.199219 123.042969 C 38.398438 128.769531 45.933594 131.300781 56.398438 131.300781 C 63.867188 131.300781 67.066406 130.636719 76.199219 127.105469 C 80.132812 125.640625 81.332031 124.839844 81.199219 124.039062 C 80.867188 122.574219 79.199219 122.773438 74.265625 124.839844 C 64.667969 128.902344 53.464844 129.835938 45.132812 127.238281 C 39.933594 125.640625 33.464844 121.441406 30.667969 117.84375 C 28.398438 115.046875 27.535156 114.648438 26.933594 116.179688 Z M 26.933594 116.179688 "/>
<path style=" stroke:none;fill-rule:nonzero;fill:rgb(0%,0%,0%);fill-opacity:1;" d="M 78.667969 127.636719 C 78.667969 128.96875 82.066406 137.429688 84.535156 142.09375 C 86.667969 146.222656 86.867188 147.222656 86.933594 152.085938 C 87 156.484375 87.332031 158.28125 88.734375 161.210938 C 93.398438 171.070312 104.066406 175.933594 114.265625 172.738281 C 120.066406 170.9375 120.535156 169.40625 116.734375 164.542969 C 116 163.609375 115.066406 160.945312 114.667969 158.546875 C 113.265625 150.753906 112.464844 148.355469 110.464844 146.089844 C 108.332031 143.691406 106 143.160156 106 145.089844 C 106 145.691406 106.601562 146.625 107.332031 147.023438 C 109.332031 148.289062 110.398438 150.953125 111.667969 157.480469 C 112.867188 163.878906 113.398438 165.34375 115.535156 167.675781 L 116.867188 169.140625 L 114.933594 169.9375 C 111.535156 171.339844 106.464844 171.40625 102.332031 170.207031 C 99.332031 169.339844 97.734375 168.339844 94.933594 165.609375 C 90.867188 161.546875 89.132812 156.882812 89.398438 151.085938 C 89.535156 148.886719 89.332031 147.554688 88.800781 147.355469 C 88.332031 147.222656 88 146.421875 88 145.558594 C 88 144.691406 87.132812 142.425781 86 140.5625 C 84.933594 138.695312 84 136.765625 84 136.230469 C 84 135.699219 83.734375 135.164062 83.398438 134.964844 C 83.132812 134.765625 82.667969 133.699219 82.464844 132.632812 C 82.066406 130.703125 78.734375 126.238281 78.667969 127.636719 Z M 78.667969 127.636719 "/>
<path style=" stroke:none;fill-rule:nonzero;fill:rgb(0%,0%,0%);fill-opacity:1;" d="M 167.667969 128.570312 C 166.734375 130.035156 168.332031 130.570312 173.398438 130.570312 C 183.535156 130.570312 192.066406 133.566406 192.535156 137.363281 C 192.800781 139.761719 189.535156 143.359375 185.464844 145.089844 C 177.867188 148.355469 168.734375 147.621094 162.066406 143.160156 C 159.933594 141.761719 157.398438 140.5625 156.535156 140.5625 C 155.601562 140.5625 152.464844 142.160156 149.601562 144.160156 C 143.332031 148.355469 133.265625 153.484375 125.199219 156.550781 C 119.867188 158.546875 118.332031 159.8125 119.933594 160.8125 C 121.464844 161.746094 141.398438 152.550781 150.132812 146.890625 C 153.199219 144.890625 156.132812 143.226562 156.734375 143.226562 C 157.332031 143.226562 158.933594 144.09375 160.265625 145.15625 C 164.199219 148.289062 168.734375 149.554688 176 149.554688 C 181.464844 149.488281 182.867188 149.222656 186.332031 147.621094 C 192.398438 144.890625 195.332031 141.492188 195.332031 137.429688 C 195.332031 133.433594 191.332031 130.570312 183.398438 128.835938 C 178.332031 127.769531 168.265625 127.570312 167.667969 128.570312 Z M 167.667969 128.570312 "/>
<path style=" stroke:none;fill-rule:nonzero;fill:rgb(0%,0%,0%);fill-opacity:1;" d="M 34.066406 130.367188 C 34 131.234375 34.265625 131.902344 34.667969 131.902344 C 35 131.902344 35.132812 132.367188 34.867188 132.96875 C 34.535156 133.832031 34.398438 133.832031 33.933594 133.101562 C 33.535156 132.5 33.332031 132.96875 33.332031 134.367188 C 33.332031 135.5 33.132812 137.03125 32.933594 137.695312 C 32.601562 138.828125 32.601562 138.828125 33.535156 137.695312 C 34.398438 136.699219 34.464844 137.03125 34.464844 141.027344 C 34.464844 144.957031 34.398438 145.15625 34 142.894531 C 33.535156 140.363281 33.535156 140.363281 33.398438 142.359375 C 33.265625 146.15625 34.667969 151.152344 36.132812 151.953125 C 37.265625 152.550781 37.398438 152.484375 37.066406 151.417969 C 36.867188 150.753906 36.535156 149.421875 36.265625 148.355469 C 36.066406 147.355469 35.667969 146.558594 35.398438 146.558594 C 35.199219 146.558594 35.199219 142.894531 35.398438 138.429688 C 35.601562 133.898438 35.667969 130.101562 35.535156 129.96875 C 35.464844 129.835938 35.332031 130.101562 35.265625 130.636719 C 35.265625 131.167969 35 131.035156 34.667969 130.234375 C 34.132812 128.96875 34.066406 128.96875 34.066406 130.367188 Z M 34.066406 130.367188 "/>
<path style=" stroke:none;fill-rule:nonzero;fill:rgb(0%,0%,0%);fill-opacity:1;" d="M 63.332031 136.03125 C 63.332031 137.164062 63.535156 137.296875 63.933594 136.699219 C 64.398438 135.964844 64.535156 135.964844 64.867188 136.832031 C 65.066406 137.363281 64.933594 137.898438 64.601562 138.03125 C 63.734375 138.296875 64.464844 142.960938 65.601562 144.09375 C 66 144.558594 66.332031 145.292969 66.398438 145.691406 C 66.535156 147.488281 66.667969 147.890625 67.199219 147.824219 C 68.535156 147.621094 68.867188 147.957031 68 148.621094 C 67.199219 149.222656 67.199219 149.289062 68.265625 148.957031 C 69.332031 148.621094 69.398438 148.6875 68.734375 149.488281 C 67.800781 150.554688 68.800781 153.21875 70.066406 153.21875 C 70.464844 153.21875 70.601562 153.484375 70.398438 153.816406 C 69.867188 154.617188 72.933594 158.949219 73.867188 158.746094 C 74.265625 158.613281 74.464844 158.949219 74.265625 159.414062 C 74.066406 159.945312 74.464844 160.28125 75.332031 160.28125 C 76.535156 160.28125 76.535156 160.148438 75.734375 158.882812 C 75.199219 158.148438 74.464844 157.617188 74.066406 157.683594 C 73.667969 157.816406 73.398438 157.683594 73.535156 157.347656 C 73.601562 157.082031 72.398438 154.351562 70.867188 151.21875 C 69.332031 148.089844 67.332031 143.160156 66.464844 140.226562 C 65 135.097656 63.332031 132.902344 63.332031 136.03125 Z M 63.332031 136.03125 "/>
<path style=" stroke:none;fill-rule:nonzero;fill:rgb(0%,0%,0%);fill-opacity:1;" d="M 48 138.960938 C 48 141.027344 48.265625 142.492188 48.601562 142.226562 C 49 142.027344 49.199219 143.226562 49.132812 145.023438 C 49 149.488281 51 157.214844 52.332031 157.214844 C 52.535156 157.214844 52.535156 156.882812 52.265625 156.417969 C 51.933594 155.949219 52.132812 155.816406 52.800781 156.015625 C 53.667969 156.347656 53.601562 155.75 52.398438 152.21875 C 51.601562 149.953125 50.800781 148.15625 50.535156 148.289062 C 50.332031 148.421875 50.132812 147.15625 50.199219 145.425781 C 50.332031 138.03125 50 135.230469 49 135.230469 C 48.199219 135.230469 48 136.097656 48 138.960938 Z M 48 138.960938 "/>
<path style=" stroke:none;fill-rule:nonzero;fill:rgb(0%,0%,0%);fill-opacity:1;" d="M 8.332031 146.421875 C 7.265625 147.089844 5.933594 148.15625 5.398438 148.753906 C 4 150.488281 4.933594 154.484375 7.265625 156.75 C 8.933594 158.480469 9.800781 158.746094 13.734375 159.015625 C 19.867188 159.347656 26.265625 158.015625 26.535156 156.28125 C 26.800781 155.152344 26.535156 155.082031 23.265625 155.617188 C 21.265625 155.949219 17.667969 156.214844 15.199219 156.214844 C 11.398438 156.214844 10.535156 155.949219 9.066406 154.617188 C 6.601562 152.285156 6.867188 150.421875 9.800781 148.488281 C 13.667969 146.023438 12.265625 144.027344 8.332031 146.421875 Z M 8.332031 146.421875 "/>
<path style=" stroke:none;fill-rule:nonzero;fill:rgb(0%,0%,0%);fill-opacity:1;" d="M 137 148.289062 C 135.535156 148.886719 132.867188 149.753906 131 150.152344 C 129.199219 150.621094 126.800781 151.351562 125.800781 151.753906 C 124.734375 152.21875 122.535156 152.550781 120.933594 152.550781 C 117.800781 152.550781 115.066406 153.550781 115.601562 154.484375 C 116.601562 156.082031 132.601562 152.019531 139.332031 148.488281 C 142.199219 147.023438 140.667969 146.890625 137 148.289062 Z M 137 148.289062 "/>
<path style=" stroke:none;fill-rule:nonzero;fill:rgb(0%,0%,0%);fill-opacity:1;" d="M 12.199219 150.820312 C 9.535156 153.285156 9.265625 153.75 10.667969 153.417969 C 12.867188 152.886719 16.667969 149.953125 16.667969 148.820312 C 16.667969 147.289062 15.601562 147.757812 12.199219 150.820312 Z M 12.199219 150.820312 "/>
<path style=" stroke:none;fill-rule:nonzero;fill:rgb(0%,0%,0%);fill-opacity:1;" d="M 91.601562 150.953125 C 92.734375 158.746094 96.332031 164.609375 101.332031 167.207031 C 104.867188 169.007812 110.667969 169.605469 112.734375 168.472656 C 114.265625 167.609375 114.066406 167.542969 110 167.140625 C 104.132812 166.542969 103.734375 166.410156 100.734375 164.144531 C 97.734375 161.945312 95.601562 158.613281 93.800781 153.21875 C 92.199219 148.421875 91 147.289062 91.601562 150.953125 Z M 91.601562 150.953125 "/>
</g>
</svg>
